<svg viewBox="0 0 101 52" fill="none" xmlns="http://www.w3.org/2000/svg">
<g clip-path="url(#clip0_9532_31038)">
<path d="M90.2568 28.0418H89.8691V34.7438H85.0566V18.0571L89.8691 10.5344V26.1041C90.827 24.9301 94.0543 20.4735 94.0543 20.4735H99.9958L94.3622 26.4347L100.19 34.7552H94.1113L90.2568 28.0418ZM76.8458 26.9476L78.8186 20.5191H83.5855L77.9976 34.6982C76.3326 38.9611 73.9492 41.8448 70.3911 41.8448C69.0226 41.8448 67.8708 41.4914 67.2664 41.1495L69.1823 38.186C69.4674 38.2202 69.7639 38.2316 70.0604 38.2316C71.7026 38.2316 72.9342 36.6359 73.7325 34.7438L67.8708 20.5191H73.2649L75.3746 26.8678C75.7852 28.076 76.0817 30.3784 76.0817 30.3784C76.0817 30.3784 76.458 28.1558 76.8458 26.9476ZM62.3057 26.617C62.3057 24.7592 61.4846 23.8815 59.9223 23.8815C59.1582 23.8815 58.36 24.0981 57.8126 24.4286V34.7438H53.0001V20.6559L57.7099 20.2683L57.5959 22.5707H57.7555C58.7705 21.203 60.4925 20.1658 62.5452 20.1658C65.0085 20.1658 67.141 21.6931 67.141 25.3063V34.7438H62.3057V26.617ZM39.2241 34.0143L39.6575 30.7317C41.1628 31.4726 42.862 31.8259 44.2875 31.8259C45.3252 31.8259 46.0095 31.4726 46.0095 30.8457C46.0095 29.0448 39.5206 29.4779 39.5206 24.7706C39.5206 21.7615 42.2804 20.1771 45.7358 20.1771C47.4578 20.1771 49.2368 20.6445 50.3886 21.0548L49.921 24.2804C48.7122 23.8131 47.07 23.38 45.7016 23.38C44.8577 23.38 44.1734 23.6763 44.1734 24.2234C44.1734 26.0015 50.7991 25.6482 50.7991 30.2416C50.7991 33.2963 48.085 35.0516 44.3673 35.0516C42.3146 35.0516 40.6496 34.6982 39.2241 34.0143Z" fill="white"/>
<g clip-path="url(#clip1_9532_31038)">
<path d="M29.1449 12.0792C29.4378 12.8982 29.6129 13.7547 29.665 14.6229V14.8938L27.7687 19.9596C28.2075 23.9607 28.6247 28.8991 28.1615 30.0965C27.9339 30.6816 27.2459 31.7435 26.1271 33.2388L27.3407 44.4647L32.1464 41.0217C32.3912 40.846 32.5907 40.6146 32.7282 40.3466C32.8658 40.0785 32.9375 39.7816 32.9374 39.4803V14.5037C32.9376 14.0923 32.804 13.6919 32.5568 13.363C32.3095 13.0342 31.962 12.7946 31.5667 12.6806C30.9626 12.5072 30.1472 12.2959 29.1449 12.0792Z" fill="white"/>
<path d="M13.1134 14.6391C15.3699 13.8787 17.8134 13.8787 20.0699 14.6391L20.6524 13.6828L21.0398 10.9739C21.0398 10.9739 18.3308 10.8303 16.6133 10.8303C15.0177 10.8303 13.5278 10.8872 12.1436 10.9793L12.5336 13.6883L13.1134 14.6391Z" fill="white"/>
<path d="M5.00001 30.0964C4.53948 28.9099 4.95667 23.9607 5.39281 19.9595L3.51008 14.8938V14.6229C3.56131 13.7557 3.73553 12.9001 4.02749 12.0819C3.02518 12.2986 2.21249 12.5099 1.58944 12.6833C1.19359 12.7968 0.845471 13.0362 0.597686 13.3651C0.3499 13.694 0.215926 14.0946 0.216003 14.5064V39.4802C0.216227 39.7818 0.288344 40.0789 0.426384 40.347C0.564424 40.615 0.764405 40.8463 1.00972 41.0216L5.83437 44.4783L7.04797 33.2632C5.92647 31.7543 5.23027 30.687 5.00001 30.0964Z" fill="white"/>
<path d="M23.3803 1.98024C23.4044 1.97975 23.4281 1.98611 23.4487 1.99857C23.4693 2.01104 23.486 2.0291 23.4968 2.05066L24.1361 3.2399C25.8454 6.4175 28.7413 12.3907 28.7413 14.6175V14.7204L26.845 19.8376V19.9216C27.4383 25.3016 27.6117 28.9776 27.3083 29.7551C27.0374 30.4486 25.9755 31.9223 25.0734 33.1061L26.3872 43.8146L25.5962 44.3808L17.6915 50.0452C17.3693 50.2763 16.9827 50.4006 16.5862 50.4006C16.1897 50.4006 15.8032 50.2763 15.481 50.0452L9.08786 45.4399L8.11533 44.7437L6.81775 43.8146L8.11805 33.1278C7.21597 31.9412 6.13509 30.4486 5.8642 29.7497C5.56079 28.9722 5.73417 25.2962 6.33014 19.9162V19.8322L4.43387 14.7177V14.6121C4.43387 12.3799 7.32432 6.40666 9.03909 3.23448L9.6784 2.04525C9.68917 2.02369 9.70582 2.00563 9.72644 1.99316C9.74706 1.98069 9.7708 1.97433 9.79489 1.97481C9.82791 1.97389 9.86009 1.98532 9.88514 2.00687C9.91019 2.02841 9.9263 2.05852 9.93034 2.0913L11.6397 14.0107L12.6989 15.7525L12.9698 15.6631C14.134 15.2544 15.3554 15.0313 16.5889 15.0022C17.8276 15.0361 19.0536 15.2599 20.2244 15.6659L20.4952 15.7525L21.5382 14.0161L23.2448 2.09672C23.2489 2.06393 23.265 2.03382 23.29 2.01228C23.3151 1.99074 23.3473 1.97932 23.3803 1.98024ZM23.3803 0.896656C23.0863 0.894565 22.8016 0.999508 22.5792 1.19191C22.3569 1.38432 22.2122 1.65104 22.1721 1.94231L20.4952 13.6314L19.9941 14.4441C18.8855 14.1087 17.7361 13.9264 16.5781 13.9023C15.4251 13.9226 14.2806 14.105 13.1784 14.4441L12.6772 13.6314L11.0004 1.94231C10.9608 1.6508 10.8163 1.38375 10.5938 1.19124C10.3714 0.998724 10.0863 0.893984 9.79218 0.896656C9.57028 0.89518 9.35219 0.954162 9.16128 1.06727C8.97038 1.18038 8.81388 1.34335 8.7086 1.53868L8.072 2.7279C7.28098 4.19615 3.34216 11.6674 3.34216 14.6229V14.9209L3.40989 15.1051L5.22218 19.9812C4.59099 25.754 4.46367 29.1754 4.84292 30.1533C4.93503 30.389 5.20322 31.0798 6.97758 33.442L5.72875 43.6954L5.6529 44.332L6.17573 44.7058L7.47331 45.635L8.44312 46.3312L14.839 50.9147C15.3452 51.2777 15.9525 51.4729 16.5754 51.4729C17.1983 51.4729 17.8056 51.2777 18.3118 50.9147L26.2084 45.2557L26.9994 44.6896L27.5196 44.3157L27.4437 43.6791L26.1922 33.4149C27.9476 31.0771 28.2185 30.389 28.3079 30.1642C28.6898 29.1835 28.5625 25.7594 27.9286 19.9893L29.7409 15.1132L29.8086 14.929V14.631C29.8086 11.6756 25.8698 4.20158 25.0815 2.73333L24.4422 1.5468C24.3371 1.35128 24.1807 1.18815 23.9897 1.07501C23.7988 0.961868 23.5806 0.90301 23.3586 0.904783L23.3803 0.896656Z" fill="white"/>
<path d="M8.90636 31.413L11.2279 30.7357C11.2778 30.7226 11.3224 30.6942 11.3553 30.6545L13.5739 28.127C13.6095 28.0865 13.6563 28.0576 13.7085 28.0438C13.7606 28.0301 13.8156 28.0323 13.8666 28.05C13.9175 28.0677 13.9619 28.1003 13.9942 28.1434C14.0265 28.1866 14.0453 28.2384 14.0479 28.2923L14.4326 35.536C14.435 35.5954 14.4189 35.6541 14.3866 35.7039C14.2322 35.9288 13.7879 36.6169 13.7879 37.0395C13.7879 37.5812 14.6006 38.291 15.3753 38.8572C15.3841 38.8341 15.3941 38.8115 15.4051 38.7894C15.676 38.2964 16.0417 38.207 16.2178 38.5863C16.278 38.8665 16.2989 39.1536 16.2801 39.4396H16.2937V40.106C16.2938 40.1473 16.2846 40.188 16.2666 40.2252C16.123 40.5178 15.4295 41.7558 13.945 41.7558C13.3111 41.7558 11.7535 41.5499 11.0573 39.6482C10.1958 37.2887 10.1877 33.9865 10.1877 33.8483V33.6208L10.0468 33.4447C9.6757 32.9869 9.23414 32.4207 8.77904 31.8193C8.75586 31.7855 8.74067 31.7468 8.73461 31.7063C8.72854 31.6657 8.73176 31.6244 8.74402 31.5852C8.75628 31.5461 8.77726 31.5103 8.80538 31.4804C8.8335 31.4506 8.86803 31.4275 8.90636 31.413Z" fill="white"/>
<path d="M23.1743 33.4527L23.0335 33.6288V33.8564C23.0335 33.9945 23.0335 37.2967 22.1639 39.6562C21.4677 41.5525 19.91 41.7638 19.2762 41.7638C17.7916 41.7638 17.109 40.5258 16.9546 40.2333C16.9366 40.1961 16.9273 40.1553 16.9275 40.1141V39.4476C16.9099 39.1616 16.9318 38.8744 16.9925 38.5943C17.155 38.2151 17.5153 38.3045 17.8052 38.7975C17.8052 38.8192 17.8242 38.8435 17.835 38.8652C18.6233 38.299 19.4224 37.5893 19.4224 37.0475C19.4224 36.6249 18.9782 35.9369 18.8238 35.712C18.7914 35.6621 18.7753 35.6034 18.7777 35.544L19.1624 28.3003C19.1651 28.2465 19.1838 28.1947 19.2161 28.1515C19.2484 28.1083 19.2929 28.0758 19.3438 28.0581C19.3947 28.0403 19.4497 28.0382 19.5019 28.0519C19.554 28.0656 19.6009 28.0946 19.6364 28.1351L21.8551 30.6625C21.888 30.7023 21.9325 30.7307 21.9824 30.7438L24.3013 31.421C24.3437 31.4331 24.3826 31.4554 24.4145 31.486C24.4464 31.5166 24.4704 31.5545 24.4843 31.5964C24.4981 31.6383 24.5016 31.683 24.4942 31.7266C24.4869 31.7702 24.469 31.8113 24.4421 31.8463C23.9897 32.4369 23.5455 32.9949 23.1743 33.4527Z" fill="white"/>
<path d="M11.6938 25.8487C11.6802 25.9464 11.6319 26.036 11.5578 26.1011C11.4838 26.1662 11.3888 26.2026 11.2901 26.2036C11.3279 26.3713 11.4276 26.5185 11.5692 26.616C11.7108 26.7134 11.884 26.7538 12.0541 26.7291C12.1646 26.7137 12.2695 26.6706 12.359 26.6038C12.4485 26.537 12.5197 26.4488 12.5661 26.3472C12.6362 26.1973 12.649 26.0269 12.6021 25.8681C12.5552 25.7094 12.4518 25.5734 12.3114 25.4857H13.4465C13.4551 25.4857 13.4634 25.4891 13.4694 25.4952C13.4755 25.5013 13.479 25.5096 13.479 25.5182C13.4892 25.725 13.4574 25.9317 13.3857 26.1259C13.3139 26.3201 13.2037 26.4978 13.0615 26.6484C12.9194 26.7989 12.7483 26.9191 12.5585 27.0018C12.3687 27.0845 12.1641 27.128 11.9571 27.1297C11.75 27.1313 11.5448 27.0911 11.3537 27.0114C11.1626 26.9317 10.9896 26.8142 10.8451 26.666C10.7005 26.5177 10.5875 26.3418 10.5127 26.1488C10.4378 25.9557 10.4028 25.7495 10.4097 25.5426V25.4857H11.5935H11.5746C11.6225 25.532 11.6584 25.5892 11.6792 25.6524C11.6999 25.7157 11.705 25.7831 11.6938 25.8487Z" fill="white"/>
<path d="M10.9462 24.2857C10.907 24.2857 10.8684 24.2772 10.8328 24.2609C10.7973 24.2445 10.7657 24.2206 10.7403 24.1909C10.3989 23.7927 9.38581 22.4545 11.1439 22.4545C12.4605 22.4545 13.5007 23.2509 14.0804 23.8252C14.1177 23.8632 14.1429 23.9114 14.153 23.9637C14.163 24.016 14.1575 24.0701 14.1369 24.1192C14.1164 24.1684 14.0819 24.2104 14.0376 24.24C13.9933 24.2696 13.9413 24.2855 13.8881 24.2857H10.9462Z" fill="white"/>
<path d="M21.5977 25.4993C21.5915 25.4981 21.585 25.4981 21.5788 25.4993H22.7626V25.5562C22.7593 25.9629 22.5947 26.3516 22.3049 26.6368C22.015 26.9221 21.6238 27.0805 21.2171 27.0773C20.8105 27.0741 20.4218 26.9094 20.1365 26.6196C19.8512 26.3298 19.6928 25.9385 19.696 25.5318V25.4993H20.8609C20.729 25.5828 20.63 25.7093 20.5806 25.8574C20.5313 26.0055 20.5346 26.1661 20.59 26.312C20.6344 26.4239 20.7082 26.5216 20.8036 26.595C20.8989 26.6685 21.0123 26.7148 21.1318 26.7292C21.3011 26.753 21.4732 26.7122 21.6138 26.6148C21.7544 26.5174 21.8531 26.3706 21.8903 26.2037C21.7918 26.2021 21.6971 26.1656 21.6232 26.1005C21.5492 26.0355 21.5008 25.9463 21.4866 25.8488C21.4767 25.7859 21.4816 25.7216 21.5008 25.6609C21.5201 25.6003 21.5533 25.5449 21.5977 25.4993Z" fill="white"/>
<path d="M19.2816 24.2857C19.2281 24.286 19.1757 24.2705 19.131 24.2411C19.0864 24.2117 19.0514 24.1697 19.0306 24.1205C19.0097 24.0712 19.0039 24.0169 19.0138 23.9644C19.0238 23.9118 19.0491 23.8634 19.0865 23.8252C19.6663 23.2509 20.7119 22.4545 22.0258 22.4545C23.7784 22.4545 22.768 23.7927 22.4294 24.1909C22.404 24.2206 22.3724 24.2445 22.3368 24.2609C22.3013 24.2772 22.2626 24.2857 22.2235 24.2857H19.2816Z" fill="white"/>
<path d="M19.2518 42.8014C19.0692 42.8019 18.8873 42.7801 18.71 42.7364C18.6595 42.7265 18.6072 42.7311 18.5592 42.7498C18.5112 42.7685 18.4696 42.8005 18.4391 42.8421C18.232 43.1372 17.9568 43.3781 17.6369 43.5443C17.3169 43.7106 16.9617 43.7975 16.6011 43.7975C16.2405 43.7975 15.8853 43.7106 15.5654 43.5443C15.2454 43.3781 14.9703 43.1372 14.7631 42.8421C14.733 42.8 14.6915 42.7675 14.6435 42.7483C14.5955 42.7291 14.543 42.724 14.4922 42.7337C14.3245 42.7739 14.1526 42.7939 13.9802 42.7933H13.8204C13.7717 42.7897 13.7229 42.7993 13.6793 42.8211C13.6356 42.8429 13.5986 42.8761 13.5723 42.9171C13.5459 42.9582 13.5311 43.0056 13.5295 43.0544C13.5279 43.1032 13.5395 43.1515 13.563 43.1942C13.8585 43.7452 14.2978 44.2056 14.8342 44.5267C15.3706 44.8477 15.9841 45.0172 16.6092 45.0172C17.2344 45.0172 17.8478 44.8477 18.3842 44.5267C18.9207 44.2056 19.36 43.7452 19.6555 43.1942C19.6789 43.1517 19.6904 43.1037 19.6889 43.0551C19.6873 43.0066 19.6728 42.9594 19.6468 42.9184C19.6207 42.8774 19.5842 42.8442 19.5409 42.8222C19.4977 42.8002 19.4493 42.7902 19.4008 42.7933L19.2518 42.8014ZM17.3312 39.7701C17.5234 39.8349 17.7058 39.926 17.873 40.041C17.6969 39.7647 17.4829 39.6645 17.3312 39.7701ZM15.3536 40.0085C15.5119 39.9044 15.6831 39.8215 15.8629 39.762C15.7166 39.6753 15.5243 39.7512 15.3536 40.0221V40.0085Z" fill="white"/>
<path d="M15.7816 39.2093C15.582 39.2748 15.3917 39.3659 15.2155 39.4802C15.4051 39.2093 15.6191 39.1037 15.7816 39.2093Z" fill="white"/>
<path d="M18.0246 39.5181C17.8364 39.388 17.6313 39.2841 17.4151 39.2093C17.5831 39.0928 17.8214 39.2093 18.0246 39.5181Z" fill="white"/>
<path d="M15.5216 42.4059C15.4991 42.4055 15.477 42.4121 15.4584 42.4249C15.4398 42.4376 15.4256 42.4558 15.4179 42.477C15.4101 42.4981 15.4092 42.5212 15.4151 42.5429C15.4211 42.5647 15.4337 42.584 15.4512 42.5982C15.776 42.8496 16.1755 42.985 16.5862 42.9829C16.9962 42.9833 17.3949 42.8491 17.7213 42.601C17.7382 42.5863 17.7504 42.5668 17.756 42.545C17.7617 42.5233 17.7607 42.5004 17.7531 42.4792C17.7454 42.4581 17.7316 42.4398 17.7133 42.4267C17.6951 42.4136 17.6733 42.4064 17.6508 42.4059H15.5216Z" fill="white"/>
<path d="M6.31112 13.886C6.41406 12.8024 7.4245 10.3969 8.47828 8.21074C8.49871 8.16916 8.53192 8.13522 8.57304 8.11391C8.61417 8.09259 8.66105 8.08502 8.7068 8.09229C8.75254 8.09956 8.79476 8.1213 8.82725 8.15432C8.85974 8.18733 8.88079 8.22989 8.88732 8.27575L9.09592 9.71149C9.09861 9.73217 9.09861 9.75312 9.09592 9.7738C8.97402 10.5865 8.48369 13.4038 7.22403 15.384C7.20251 15.4185 7.17176 15.4462 7.13527 15.464C7.09878 15.4818 7.05802 15.4889 7.01764 15.4847C6.97727 15.4805 6.9389 15.465 6.9069 15.44C6.8749 15.415 6.85055 15.3815 6.83665 15.3434L6.33007 13.9889C6.31637 13.9564 6.30991 13.9213 6.31112 13.886Z" fill="white"/>
<path d="M25.9917 15.384C24.7347 13.4038 24.2417 10.5811 24.1225 9.7738C24.1198 9.75312 24.1198 9.73217 24.1225 9.71149L24.3284 8.27575C24.3349 8.22989 24.356 8.18733 24.3885 8.15432C24.4209 8.1213 24.4632 8.09956 24.5089 8.09229C24.5547 8.08502 24.6015 8.09259 24.6427 8.11391C24.6838 8.13522 24.717 8.16916 24.7374 8.21074C25.7858 10.3969 26.7962 12.7916 26.9046 13.886C26.9125 13.918 26.9125 13.9515 26.9046 13.9835L26.4007 15.338C26.39 15.3815 26.3662 15.4207 26.3325 15.4503C26.2988 15.4799 26.2568 15.4985 26.2122 15.5035C26.1677 15.5085 26.1226 15.4997 26.0832 15.4784C26.0438 15.457 26.0118 15.4241 25.9917 15.384Z" fill="white"/>
</g>
</g>
<defs>
<clipPath id="clip0_9532_31038">
<rect width="100.414" height="52" fill="white"/>
</clipPath>
<clipPath id="clip1_9532_31038">
<rect width="32.7241" height="50.5761" fill="white" transform="translate(0.224121 0.896606)"/>
</clipPath>
</defs>
</svg>
