<svg width="609" height="308" viewBox="0 0 609 308" fill="none" xmlns="http://www.w3.org/2000/svg">
<g clip-path="url(#clip0_35_473)">
<path d="M25.8809 29.2177H59.2691L75.6569 63.9726L92.6574 29.2177H126.046L75.6687 135.438L25.8809 29.2177Z" stroke="url(#paint0_linear_35_473)" stroke-width="27.6979"/>
<path d="M163.676 105.702H184.164V29.2176H214.512V108.73C214.512 111.663 213.923 114.479 212.769 117.153C211.602 119.84 210.083 122.267 208.221 124.434C206.348 126.614 204.145 128.511 201.624 130.125C199.091 131.739 196.463 133.011 193.73 133.918C191.81 134.625 189.807 135.061 187.733 135.202C185.66 135.356 183.504 135.426 181.289 135.426C178.049 135.332 174.739 135.297 171.346 135.356C167.953 135.403 164.666 135.308 161.485 135.049C158.292 134.802 155.264 134.189 152.378 133.223C149.491 132.269 146.84 130.667 144.414 128.44C141.374 126.013 138.794 122.879 136.673 119.027C134.553 115.186 133.48 110.98 133.48 106.432V29.2176H163.676V105.702Z" stroke="url(#paint1_linear_35_473)" stroke-width="27.6979"/>
<path d="M253.802 29.2177V105.089H283.844L280.51 135.438H223.147V29.2177H253.802Z" stroke="url(#paint2_linear_35_473)" stroke-width="27.6979"/>
<path d="M370.802 29.2177V135.438L318.906 93.096V135.438H289.158V29.2177L339.994 70.7939V29.2177H370.955H370.802Z" stroke="url(#paint3_linear_35_473)" stroke-width="27.6979"/>
<path d="M25.8809 29.2177H59.2691L75.6569 63.9726L92.6574 29.2177H126.046L75.6687 135.438L25.8809 29.2177Z" stroke="#FF3DFF" stroke-width="20.7822"/>
<path d="M163.676 105.702H184.164V29.2176H214.512V108.73C214.512 111.663 213.923 114.479 212.769 117.153C211.602 119.84 210.083 122.267 208.221 124.434C206.348 126.614 204.145 128.511 201.624 130.125C199.091 131.739 196.463 133.011 193.73 133.918C191.81 134.625 189.807 135.061 187.733 135.202C185.66 135.356 183.504 135.426 181.289 135.426C178.049 135.332 174.739 135.297 171.346 135.356C167.953 135.403 164.666 135.308 161.485 135.049C158.292 134.802 155.264 134.189 152.378 133.223C149.491 132.269 146.84 130.667 144.414 128.44C141.374 126.013 138.794 122.879 136.673 119.027C134.553 115.186 133.48 110.98 133.48 106.432V29.2176H163.676V105.702Z" stroke="#FF3DFF" stroke-width="20.7822"/>
<path d="M253.802 29.2177V105.089H283.844L280.51 135.438H223.147V29.2177H253.802Z" stroke="#FF3DFF" stroke-width="20.7822"/>
<path d="M370.802 29.2177V135.438L318.906 93.096V135.438H289.158V29.2177L339.994 70.7939V29.2177H370.955H370.802Z" stroke="#FF3DFF" stroke-width="20.7822"/>
<path d="M13.5337 21.3713H64.2405L75.7862 45.8411L87.756 21.3713H138.451L75.6095 153.864L13.5337 21.3713Z" fill="url(#paint4_linear_35_473)"/>
<path d="M181.028 143.296C178.955 143.237 176.81 143.202 174.666 143.202C173.594 143.202 172.522 143.202 171.438 143.226C170.826 143.226 170.225 143.237 169.612 143.237C166.631 143.237 163.674 143.119 160.835 142.896C157.041 142.601 153.342 141.859 149.867 140.693C146.026 139.42 142.468 137.311 139.275 134.437C135.541 131.397 132.336 127.497 129.779 122.856C127.011 117.86 125.609 112.335 125.609 106.468V21.3713H171.509V97.8556H176.292V21.3713H222.345V108.742C222.345 112.747 221.544 116.623 219.954 120.287C218.481 123.68 216.525 126.802 214.146 129.571C211.789 132.316 208.985 134.731 205.828 136.758C202.8 138.701 199.596 140.245 196.297 141.352C193.728 142.283 191.031 142.86 188.274 143.061C186.023 143.226 183.655 143.308 181.252 143.308H181.005L181.028 143.296Z" fill="url(#paint5_linear_35_473)"/>
<path d="M215.3 143.296V21.3713H261.659V97.243H292.621L287.555 143.296H215.3Z" fill="url(#paint6_linear_35_473)"/>
<path d="M326.763 109.649V143.296H281.311V12.6531L332.147 54.2412V21.3713H378.66V151.991L326.763 109.649Z" fill="url(#paint7_linear_35_473)"/>
<path d="M25.8809 29.2177H59.2691L75.6569 63.9726L92.6574 29.2177H126.046L75.6687 135.438L25.8809 29.2177Z" stroke="#FFECBD" stroke-width="3.5344"/>
<path d="M163.676 105.702H184.164V29.2176H214.512V108.73C214.512 111.663 213.923 114.479 212.769 117.153C211.602 119.84 210.083 122.267 208.221 124.434C206.348 126.614 204.145 128.511 201.624 130.125C199.091 131.739 196.463 133.011 193.73 133.918C191.81 134.625 189.807 135.061 187.733 135.202C185.66 135.356 183.504 135.426 181.289 135.426C178.049 135.332 174.739 135.297 171.346 135.356C167.953 135.403 164.666 135.308 161.485 135.049C158.292 134.802 155.264 134.189 152.378 133.223C149.491 132.269 146.84 130.667 144.414 128.44C141.374 126.013 138.794 122.879 136.673 119.027C134.553 115.186 133.48 110.98 133.48 106.432V29.2176H163.676V105.702Z" stroke="#FFECBD" stroke-width="3.5344"/>
<path d="M253.802 29.2177V105.089H283.844L280.51 135.438H223.147V29.2177H253.802Z" stroke="#FFECBD" stroke-width="3.5344"/>
<path d="M370.802 29.2177V135.438L318.906 93.096V135.438H289.158V29.2177L339.994 70.7939V29.2177H370.955H370.802Z" stroke="#FFECBD" stroke-width="3.5344"/>
<path d="M25.8809 29.2177H59.2691L75.6569 63.9726L92.6574 29.2177H126.046L75.6687 135.438L25.8809 29.2177Z" fill="url(#paint8_linear_35_473)"/>
<path d="M163.676 105.702H184.164V29.2176H214.512V108.73C214.512 111.663 213.923 114.479 212.769 117.153C211.602 119.84 210.083 122.267 208.221 124.434C206.348 126.614 204.145 128.511 201.624 130.125C199.091 131.739 196.463 133.011 193.73 133.918C191.81 134.625 189.807 135.061 187.733 135.202C185.66 135.356 183.504 135.426 181.289 135.426C178.049 135.332 174.739 135.297 171.346 135.356C167.953 135.403 164.666 135.308 161.485 135.049C158.292 134.802 155.264 134.189 152.378 133.223C149.491 132.269 146.84 130.667 144.414 128.44C141.374 126.013 138.794 122.879 136.673 119.027C134.553 115.186 133.48 110.98 133.48 106.432V29.2176H163.676V105.702Z" fill="url(#paint9_linear_35_473)"/>
<path d="M253.802 29.2177V105.089H283.844L280.51 135.438H223.147V29.2177H253.802Z" fill="url(#paint10_linear_35_473)"/>
<path d="M370.802 29.2177V135.438L318.906 93.096V135.438H289.158V29.2177L339.994 70.7939V29.2177H370.955H370.802Z" fill="url(#paint11_linear_35_473)"/>
<path d="M21.7827 169.286H55.171L71.5588 204.041L88.5592 169.286H121.948L71.5706 275.506L21.7945 169.286H21.7827Z" stroke="url(#paint12_linear_35_473)" stroke-width="27.6979"/>
<path d="M198.726 171.866C199.539 172.066 200.269 172.325 200.929 172.62C201.589 172.926 202.272 173.174 202.979 173.374C207.833 175.4 212.439 178.157 216.787 181.644C221.134 185.132 224.775 189.208 227.708 193.862C231.549 199.929 234.105 206.633 235.366 213.972C236.627 221.312 236.25 228.617 234.223 235.897C233.316 239.644 231.926 243.261 230.053 246.748C228.179 250.235 226 253.475 223.526 256.456C221.052 259.436 218.236 262.123 215.102 264.502C211.968 266.882 208.681 268.826 205.241 270.346C199.268 273.28 192.8 274.952 185.814 275.353C174.68 275.754 164.643 273.48 155.689 268.52C146.735 263.56 139.725 256.385 134.671 246.972C132.951 243.932 131.608 240.681 130.654 237.182C129.687 233.694 129.087 230.101 128.827 226.413C128.58 222.726 128.698 219.05 129.204 215.41C129.711 211.769 130.571 208.282 131.785 204.936C133.811 198.869 137.039 193.225 141.492 188.018C145.946 182.811 151.047 178.734 156.82 175.801C158.434 174.788 160.06 173.975 161.674 173.374C162.887 172.867 164.348 172.361 166.08 171.854C173.161 169.627 180.595 168.873 188.382 169.58C190.208 169.781 191.975 170.063 193.695 170.417C195.415 170.77 197.088 171.253 198.702 171.854L198.726 171.866ZM186.733 200.235L184.306 199.929C182.185 199.835 180.053 199.976 177.932 200.388C177.425 200.388 176.942 200.495 176.495 200.695C176.035 200.895 175.564 201.001 175.057 201.001C174.244 201.402 173.408 201.79 172.56 202.144C171.7 202.497 170.863 202.98 170.062 203.581C169.555 203.687 169.202 203.888 169.002 204.194C168.801 204.5 168.495 204.748 168.095 204.948C167.694 205.254 167.282 205.56 166.881 205.855C166.481 206.161 166.127 206.562 165.821 207.068C165.621 207.068 165.514 207.116 165.514 207.222L165.208 207.528C165.102 207.634 165.008 207.752 164.902 207.905C164.796 208.058 164.654 208.235 164.442 208.435C164.242 208.942 163.959 209.366 163.606 209.719C163.252 210.073 162.97 210.509 162.769 211.003C162.569 211.404 162.334 211.816 162.086 212.217C161.827 212.618 161.603 213.03 161.403 213.43C161.297 213.937 161.179 214.396 161.026 214.797C160.873 215.198 160.696 215.657 160.496 216.164C160.39 216.67 160.272 217.153 160.119 217.601C159.965 218.06 159.895 218.591 159.895 219.191C159.694 219.298 159.647 219.368 159.742 219.415C159.836 219.462 159.895 219.592 159.895 219.792C159.588 220.806 159.541 222.219 159.742 224.045V224.505C160.142 228.852 161.615 232.646 164.148 235.886C164.454 236.392 164.808 236.852 165.208 237.252C165.609 237.653 165.962 238.065 166.268 238.466C166.669 238.866 167.081 239.22 167.482 239.526C167.788 239.832 167.989 239.986 168.095 239.986C168.601 240.492 169.002 240.846 169.308 241.046C169.614 241.246 169.862 241.399 170.062 241.505C170.262 241.611 170.463 241.764 170.663 241.965C171.063 242.165 171.44 242.342 171.806 242.495C172.159 242.648 172.583 242.825 173.09 243.025C173.596 243.331 174.409 243.685 175.517 244.085C176.624 244.486 177.59 244.698 178.403 244.698C178.804 244.898 179.11 245.004 179.31 245.004C179.817 245.004 180.17 245.051 180.371 245.157C180.677 245.063 181.007 245.028 181.36 245.087C181.714 245.134 182.044 245.11 182.35 245.016C184.577 245.016 186.697 244.71 188.724 244.109C189.124 243.909 189.431 243.803 189.631 243.803C189.937 243.803 190.291 243.708 190.691 243.496C190.891 243.697 190.997 243.697 190.997 243.496L191.304 243.19C191.61 243.19 191.881 243.096 192.14 242.884C192.388 242.683 192.718 242.53 193.13 242.424C193.636 241.918 194.19 241.517 194.803 241.211C195.109 241.01 195.439 240.81 195.792 240.61C196.146 240.41 196.476 240.209 196.782 239.997C197.183 239.385 197.595 239.031 197.996 238.937C198.302 238.536 198.596 238.183 198.903 237.877C199.209 237.57 199.515 237.217 199.81 236.816C200.517 236.003 201.153 235.179 201.707 234.319C202.26 233.459 202.791 232.469 203.297 231.362C203.603 230.761 203.827 230.125 203.98 229.465C204.134 228.805 204.31 228.181 204.511 227.568C205.418 223.315 205.218 219.274 203.91 215.433C203.297 213.006 202.084 210.732 200.269 208.6C198.75 206.479 196.57 204.606 193.743 202.98C192.529 202.167 191.056 201.519 189.336 201.013C188.83 200.813 188.37 200.683 187.97 200.636C187.569 200.589 187.157 200.459 186.756 200.259L186.733 200.235Z" stroke="url(#paint13_linear_35_473)" stroke-width="27.6979"/>
<path d="M293.411 169.286C294.012 169.286 294.424 169.333 294.625 169.439C295.131 169.239 295.638 169.239 296.144 169.439C296.651 169.639 297.158 169.698 297.664 169.592C298.878 169.698 300.068 169.898 301.234 170.205C302.4 170.511 303.531 170.864 304.651 171.265C305.97 171.772 307.325 172.384 308.751 173.091C312.898 175.224 316.385 178.263 319.224 182.21C321.757 185.756 323.371 189.703 324.078 194.062C324.785 198.421 324.585 202.721 323.465 206.974C323.265 207.481 323.065 208.011 322.865 208.565C322.664 209.118 322.464 209.649 322.252 210.155C321.639 211.875 320.779 213.548 319.672 215.174C318.553 216.8 317.445 218.32 316.338 219.733L308.904 230.219L328.779 275.506H293.576L273.242 229.429L295.249 199.175H272.334V275.506H243.199V169.286H293.423H293.411Z" stroke="url(#paint14_linear_35_473)" stroke-width="27.6979"/>
<path d="M407.078 199.481H386.284V275.506H355.936V199.481H334.847L338.947 169.286H403.132L407.078 199.481Z" stroke="url(#paint15_linear_35_473)" stroke-width="27.6979"/>
<path d="M485.684 169.286L489.324 199.634L467.317 199.328L480.818 221.937L467.011 245.758H489.313L485.672 275.506H413.441L445.769 222.549V222.396L413.441 169.286H485.672H485.684Z" stroke="url(#paint16_linear_35_473)" stroke-width="27.6979"/>
<path d="M540.619 189.773L551.54 169.286H585.989L557.761 222.549L585.683 275.506H551.081L540.607 255.631H540.301L529.674 275.506H494.919L522.994 222.396L494.919 169.286H529.816L540.596 189.773H540.619Z" stroke="url(#paint17_linear_35_473)" stroke-width="27.6979"/>
<path d="M21.7827 169.286H55.171L71.5588 204.041L88.5592 169.286H121.948L71.5706 275.506L21.7945 169.286H21.7827Z" stroke="#FF3DFF" stroke-width="20.7822"/>
<path d="M198.726 171.866C199.539 172.066 200.269 172.325 200.929 172.62C201.589 172.926 202.272 173.174 202.979 173.374C207.833 175.4 212.439 178.157 216.787 181.644C221.134 185.132 224.775 189.208 227.708 193.862C231.549 199.929 234.105 206.633 235.366 213.972C236.627 221.312 236.25 228.617 234.223 235.897C233.316 239.644 231.926 243.261 230.053 246.748C228.179 250.235 226 253.475 223.526 256.456C221.052 259.436 218.236 262.123 215.102 264.502C211.968 266.882 208.681 268.826 205.241 270.346C199.268 273.28 192.8 274.952 185.814 275.353C174.68 275.754 164.643 273.48 155.689 268.52C146.735 263.56 139.725 256.385 134.671 246.972C132.951 243.932 131.608 240.681 130.654 237.182C129.687 233.694 129.087 230.101 128.827 226.413C128.58 222.726 128.698 219.05 129.204 215.41C129.711 211.769 130.571 208.282 131.785 204.936C133.811 198.869 137.039 193.225 141.492 188.018C145.946 182.811 151.047 178.734 156.82 175.801C158.434 174.788 160.06 173.975 161.674 173.374C162.887 172.867 164.348 172.361 166.08 171.854C173.161 169.627 180.595 168.873 188.382 169.58C190.208 169.781 191.975 170.063 193.695 170.417C195.415 170.77 197.088 171.253 198.702 171.854L198.726 171.866ZM186.733 200.235L184.306 199.929C182.185 199.835 180.053 199.976 177.932 200.388C177.425 200.388 176.942 200.495 176.495 200.695C176.035 200.895 175.564 201.001 175.057 201.001C174.244 201.402 173.408 201.79 172.56 202.144C171.7 202.497 170.863 202.98 170.062 203.581C169.555 203.687 169.202 203.888 169.002 204.194C168.801 204.5 168.495 204.748 168.095 204.948C167.694 205.254 167.282 205.56 166.881 205.855C166.481 206.161 166.127 206.562 165.821 207.068C165.621 207.068 165.514 207.116 165.514 207.222L165.208 207.528C165.102 207.634 165.008 207.752 164.902 207.905C164.796 208.058 164.654 208.235 164.442 208.435C164.242 208.942 163.959 209.366 163.606 209.719C163.252 210.073 162.97 210.509 162.769 211.003C162.569 211.404 162.334 211.816 162.086 212.217C161.827 212.618 161.603 213.03 161.403 213.43C161.297 213.937 161.179 214.396 161.026 214.797C160.873 215.198 160.696 215.657 160.496 216.164C160.39 216.67 160.272 217.153 160.119 217.601C159.965 218.06 159.895 218.591 159.895 219.191C159.694 219.298 159.647 219.368 159.742 219.415C159.836 219.462 159.895 219.592 159.895 219.792C159.588 220.806 159.541 222.219 159.742 224.045V224.505C160.142 228.852 161.615 232.646 164.148 235.886C164.454 236.392 164.808 236.852 165.208 237.252C165.609 237.653 165.962 238.065 166.268 238.466C166.669 238.866 167.081 239.22 167.482 239.526C167.788 239.832 167.989 239.986 168.095 239.986C168.601 240.492 169.002 240.846 169.308 241.046C169.614 241.246 169.862 241.399 170.062 241.505C170.262 241.611 170.463 241.764 170.663 241.965C171.063 242.165 171.44 242.342 171.806 242.495C172.159 242.648 172.583 242.825 173.09 243.025C173.596 243.331 174.409 243.685 175.517 244.085C176.624 244.486 177.59 244.698 178.403 244.698C178.804 244.898 179.11 245.004 179.31 245.004C179.817 245.004 180.17 245.051 180.371 245.157C180.677 245.063 181.007 245.028 181.36 245.087C181.714 245.134 182.044 245.11 182.35 245.016C184.577 245.016 186.697 244.71 188.724 244.109C189.124 243.909 189.431 243.803 189.631 243.803C189.937 243.803 190.291 243.708 190.691 243.496C190.891 243.697 190.997 243.697 190.997 243.496L191.304 243.19C191.61 243.19 191.881 243.096 192.14 242.884C192.388 242.683 192.718 242.53 193.13 242.424C193.636 241.918 194.19 241.517 194.803 241.211C195.109 241.01 195.439 240.81 195.792 240.61C196.146 240.41 196.476 240.209 196.782 239.997C197.183 239.385 197.595 239.031 197.996 238.937C198.302 238.536 198.596 238.183 198.903 237.877C199.209 237.57 199.515 237.217 199.81 236.816C200.517 236.003 201.153 235.179 201.707 234.319C202.26 233.459 202.791 232.469 203.297 231.362C203.603 230.761 203.827 230.125 203.98 229.465C204.134 228.805 204.31 228.181 204.511 227.568C205.418 223.315 205.218 219.274 203.91 215.433C203.297 213.006 202.084 210.732 200.269 208.6C198.75 206.479 196.57 204.606 193.743 202.98C192.529 202.167 191.056 201.519 189.336 201.013C188.83 200.813 188.37 200.683 187.97 200.636C187.569 200.589 187.157 200.459 186.756 200.259L186.733 200.235Z" stroke="#FF3DFF" stroke-width="20.7822"/>
<path d="M293.411 169.286C294.012 169.286 294.424 169.333 294.625 169.439C295.131 169.239 295.638 169.239 296.144 169.439C296.651 169.639 297.158 169.698 297.664 169.592C298.878 169.698 300.068 169.898 301.234 170.205C302.4 170.511 303.531 170.864 304.651 171.265C305.97 171.772 307.325 172.384 308.751 173.091C312.898 175.224 316.385 178.263 319.224 182.21C321.757 185.756 323.371 189.703 324.078 194.062C324.785 198.421 324.585 202.721 323.465 206.974C323.265 207.481 323.065 208.011 322.865 208.565C322.664 209.118 322.464 209.649 322.252 210.155C321.639 211.875 320.779 213.548 319.672 215.174C318.553 216.8 317.445 218.32 316.338 219.733L308.904 230.219L328.779 275.506H293.576L273.242 229.429L295.249 199.175H272.334V275.506H243.199V169.286H293.423H293.411Z" stroke="#FF3DFF" stroke-width="20.7822"/>
<path d="M407.078 199.481H386.284V275.506H355.936V199.481H334.847L338.947 169.286H403.132L407.078 199.481Z" stroke="#FF3DFF" stroke-width="20.7822"/>
<path d="M485.684 169.286L489.324 199.634L467.317 199.328L480.818 221.937L467.011 245.758H489.313L485.672 275.506H413.441L445.769 222.549V222.396L413.441 169.286H485.672H485.684Z" stroke="#FF3DFF" stroke-width="20.7822"/>
<path d="M540.619 189.773L551.54 169.286H585.989L557.761 222.549L585.683 275.506H551.081L540.607 255.631H540.301L529.674 275.506H494.919L522.994 222.396L494.919 169.286H529.816L540.596 189.773H540.619Z" stroke="#FF3DFF" stroke-width="20.7822"/>
<path d="M9.43652 161.428H60.1551L71.689 185.897L83.6588 161.428H134.354L71.5123 293.92L9.43652 161.428Z" fill="url(#paint18_linear_35_473)"/>
<path d="M183.329 283.258C171.889 283.258 161.309 280.619 151.896 275.4C141.67 269.733 133.564 261.451 127.803 250.777C125.789 247.219 124.21 243.355 123.091 239.279C121.995 235.297 121.288 231.15 121.006 226.955C120.711 222.738 120.864 218.496 121.441 214.338C122.019 210.214 123.008 206.185 124.387 202.368C126.719 195.405 130.478 188.866 135.544 182.929C140.563 177.05 146.43 172.349 152.98 168.968C154.9 167.79 156.856 166.824 158.812 166.081C160.249 165.492 161.887 164.927 163.819 164.349C169.91 162.441 176.307 161.475 182.834 161.475C184.896 161.475 187.016 161.569 189.113 161.758H189.278C191.328 162.005 193.355 162.323 195.299 162.724C197.29 163.136 199.222 163.678 201.095 164.361C202.202 164.668 203.251 165.045 204.217 165.48C204.512 165.622 204.818 165.728 205.136 165.822L205.584 165.952L206.008 166.128C211.521 168.426 216.811 171.583 221.712 175.518C226.719 179.536 230.972 184.295 234.365 189.667C238.736 196.571 241.693 204.3 243.131 212.629C244.58 221.041 244.156 229.535 241.858 237.877C240.798 242.2 239.16 246.43 237.004 250.459C234.884 254.406 232.398 258.117 229.594 261.475C226.743 264.903 223.479 268.025 219.874 270.758C216.316 273.456 212.511 275.718 208.588 277.462C201.743 280.808 194.238 282.728 186.298 283.188H186.133C185.202 283.235 184.271 283.247 183.352 283.247L183.329 283.258ZM180.266 236.852L180.949 237.193L181.067 237.158H182.339C183.623 237.158 184.86 237.005 186.027 236.699C186.368 236.557 186.71 236.439 187.04 236.333L188.041 235.332H189.373C189.832 235.002 190.303 234.707 190.798 234.437C191.046 234.283 191.293 234.13 191.564 233.965C191.964 233.553 192.377 233.188 192.789 232.881C192.966 232.681 193.154 232.493 193.343 232.304C193.343 232.304 193.402 232.245 193.508 232.104L193.696 231.856L193.897 231.621C194.356 231.102 194.757 230.56 195.11 230.03C195.452 229.5 195.805 228.84 196.147 228.086L196.276 227.827C196.276 227.827 196.312 227.733 196.324 227.686C196.488 226.955 196.689 226.237 196.901 225.553C197.431 222.844 197.29 220.346 196.465 217.954L196.359 217.648L196.276 217.33C195.97 216.093 195.31 214.903 194.285 213.701L194.062 213.442L193.861 213.159C193.013 211.981 191.658 210.839 189.832 209.79L189.596 209.66L189.373 209.519C188.996 209.272 188.289 208.895 187.099 208.541L186.757 208.435L186.557 208.353C185.956 208.258 185.355 208.105 184.766 207.905L183.659 207.764C183.447 207.764 183.246 207.764 183.034 207.764C181.833 207.764 180.607 207.881 179.394 208.105L178.805 208.211C178.31 208.388 177.803 208.529 177.285 208.624C176.708 208.895 176.13 209.142 175.53 209.389C175.282 209.495 175.023 209.649 174.752 209.849L173.326 210.921L173.22 210.945C172.949 211.145 172.667 211.345 172.372 211.522L172.184 211.663L170.228 214.915H169.568C169.321 215.398 169.05 215.869 168.755 216.329C168.637 216.753 168.496 217.165 168.343 217.577C168.237 217.848 168.119 218.155 167.989 218.485C167.907 218.838 167.813 219.191 167.707 219.545V224.045L167.554 224.116C167.86 226.814 168.755 229.088 170.287 231.055L170.593 231.444L170.793 231.786C170.911 231.904 171.017 232.021 171.135 232.139H171.312C171.312 232.139 173.727 234.566 173.774 234.613C174.128 234.802 174.481 235.026 174.823 235.261C174.823 235.261 174.846 235.261 174.858 235.273C175.176 235.414 175.53 235.556 175.954 235.732L176.554 235.968L177.096 236.298C177.096 236.298 177.426 236.451 178.157 236.71C178.369 236.793 178.51 236.828 178.593 236.852H180.242H180.266Z" fill="url(#paint19_linear_35_473)"/>
<path d="M288.453 283.364L280.183 264.62V283.364H235.343V161.439H293.425C293.755 161.439 294.132 161.439 294.544 161.475C294.827 161.451 295.11 161.439 295.404 161.439C296.194 161.439 296.96 161.534 297.725 161.722L298.338 161.769C299.987 161.911 301.637 162.193 303.227 162.606C304.606 162.971 305.984 163.395 307.327 163.878L307.48 163.937C309 164.526 310.602 165.233 312.252 166.058C317.589 168.791 322.042 172.667 325.6 177.627C328.84 182.163 330.925 187.264 331.832 192.801C332.716 198.232 332.457 203.675 331.067 208.965L330.937 209.448L330.748 209.908C330.572 210.332 330.407 210.78 330.242 211.251C330.018 211.863 329.806 212.417 329.606 212.936C328.781 215.245 327.615 217.495 326.154 219.627C324.976 221.336 323.797 222.95 322.631 224.434L317.871 231.138L340.798 283.364H288.453Z" fill="url(#paint20_linear_35_473)"/>
<path d="M348.079 283.364V207.339H325.859L332.08 161.428H410.025L416.022 207.339H394.144V283.364H348.079Z" fill="url(#paint21_linear_35_473)"/>
<path d="M399.457 283.364L436.615 222.467L399.481 161.428H492.647L498.184 207.61L481.278 207.375L489.938 221.878L480.642 237.912H498.196L492.635 283.364H399.457Z" fill="url(#paint22_linear_35_473)"/>
<path d="M546.347 283.364L540.421 272.101L534.4 283.364H481.903L514.125 222.396L481.903 161.428H534.589L540.668 172.997L546.83 161.428H599.033L566.646 222.561L598.703 283.364H546.347Z" fill="url(#paint23_linear_35_473)"/>
<path d="M21.7827 169.286H55.171L71.5588 204.041L88.5592 169.286H121.948L71.5706 275.506L21.7945 169.286H21.7827Z" stroke="#FFECBD" stroke-width="3.5344"/>
<path d="M198.726 171.866C199.539 172.066 200.269 172.325 200.929 172.62C201.589 172.926 202.272 173.174 202.979 173.374C207.833 175.4 212.439 178.157 216.787 181.644C221.134 185.132 224.775 189.208 227.708 193.862C231.549 199.929 234.105 206.633 235.366 213.972C236.627 221.312 236.25 228.617 234.223 235.897C233.316 239.644 231.926 243.261 230.053 246.748C228.179 250.235 226 253.475 223.526 256.456C221.052 259.436 218.236 262.123 215.102 264.502C211.968 266.882 208.681 268.826 205.241 270.346C199.268 273.28 192.8 274.952 185.814 275.353C174.68 275.754 164.643 273.48 155.689 268.52C146.735 263.56 139.725 256.385 134.671 246.972C132.951 243.932 131.608 240.681 130.654 237.182C129.687 233.694 129.087 230.101 128.827 226.413C128.58 222.726 128.698 219.05 129.204 215.41C129.711 211.769 130.571 208.282 131.785 204.936C133.811 198.869 137.039 193.225 141.492 188.018C145.946 182.811 151.047 178.734 156.82 175.801C158.434 174.788 160.06 173.975 161.674 173.374C162.887 172.867 164.348 172.361 166.08 171.854C173.161 169.627 180.595 168.873 188.382 169.58C190.208 169.781 191.975 170.063 193.695 170.417C195.415 170.77 197.088 171.253 198.702 171.854L198.726 171.866ZM186.733 200.235L184.306 199.929C182.185 199.835 180.053 199.976 177.932 200.388C177.425 200.388 176.942 200.495 176.495 200.695C176.035 200.895 175.564 201.001 175.057 201.001C174.244 201.402 173.408 201.79 172.56 202.144C171.7 202.497 170.863 202.98 170.062 203.581C169.555 203.687 169.202 203.888 169.002 204.194C168.801 204.5 168.495 204.748 168.095 204.948C167.694 205.254 167.282 205.56 166.881 205.855C166.481 206.161 166.127 206.562 165.821 207.068C165.621 207.068 165.514 207.116 165.514 207.222L165.208 207.528C165.102 207.634 165.008 207.752 164.902 207.905C164.796 208.058 164.654 208.235 164.442 208.435C164.242 208.942 163.959 209.366 163.606 209.719C163.252 210.073 162.97 210.509 162.769 211.003C162.569 211.404 162.334 211.816 162.086 212.217C161.827 212.618 161.603 213.03 161.403 213.43C161.297 213.937 161.179 214.396 161.026 214.797C160.873 215.198 160.696 215.657 160.496 216.164C160.39 216.67 160.272 217.153 160.119 217.601C159.965 218.06 159.895 218.591 159.895 219.191C159.694 219.298 159.647 219.368 159.742 219.415C159.836 219.462 159.895 219.592 159.895 219.792C159.588 220.806 159.541 222.219 159.742 224.045V224.505C160.142 228.852 161.615 232.646 164.148 235.886C164.454 236.392 164.808 236.852 165.208 237.252C165.609 237.653 165.962 238.065 166.268 238.466C166.669 238.866 167.081 239.22 167.482 239.526C167.788 239.832 167.989 239.986 168.095 239.986C168.601 240.492 169.002 240.846 169.308 241.046C169.614 241.246 169.862 241.399 170.062 241.505C170.262 241.611 170.463 241.764 170.663 241.965C171.063 242.165 171.44 242.342 171.806 242.495C172.159 242.648 172.583 242.825 173.09 243.025C173.596 243.331 174.409 243.685 175.517 244.085C176.624 244.486 177.59 244.698 178.403 244.698C178.804 244.898 179.11 245.004 179.31 245.004C179.817 245.004 180.17 245.051 180.371 245.157C180.677 245.063 181.007 245.028 181.36 245.087C181.714 245.134 182.044 245.11 182.35 245.016C184.577 245.016 186.697 244.71 188.724 244.109C189.124 243.909 189.431 243.803 189.631 243.803C189.937 243.803 190.291 243.708 190.691 243.496C190.891 243.697 190.997 243.697 190.997 243.496L191.304 243.19C191.61 243.19 191.881 243.096 192.14 242.884C192.388 242.683 192.718 242.53 193.13 242.424C193.636 241.918 194.19 241.517 194.803 241.211C195.109 241.01 195.439 240.81 195.792 240.61C196.146 240.41 196.476 240.209 196.782 239.997C197.183 239.385 197.595 239.031 197.996 238.937C198.302 238.536 198.596 238.183 198.903 237.877C199.209 237.57 199.515 237.217 199.81 236.816C200.517 236.003 201.153 235.179 201.707 234.319C202.26 233.459 202.791 232.469 203.297 231.362C203.603 230.761 203.827 230.125 203.98 229.465C204.134 228.805 204.31 228.181 204.511 227.568C205.418 223.315 205.218 219.274 203.91 215.433C203.297 213.006 202.084 210.732 200.269 208.6C198.75 206.479 196.57 204.606 193.743 202.98C192.529 202.167 191.056 201.519 189.336 201.013C188.83 200.813 188.37 200.683 187.97 200.636C187.569 200.589 187.157 200.459 186.756 200.259L186.733 200.235Z" stroke="#FFECBD" stroke-width="3.5344"/>
<path d="M293.411 169.286C294.012 169.286 294.424 169.333 294.625 169.439C295.131 169.239 295.638 169.239 296.144 169.439C296.651 169.639 297.158 169.698 297.664 169.592C298.878 169.698 300.068 169.898 301.234 170.205C302.4 170.511 303.531 170.864 304.651 171.265C305.97 171.772 307.325 172.384 308.751 173.091C312.898 175.224 316.385 178.263 319.224 182.21C321.757 185.756 323.371 189.703 324.078 194.062C324.785 198.421 324.585 202.721 323.465 206.974C323.265 207.481 323.065 208.011 322.865 208.565C322.664 209.118 322.464 209.649 322.252 210.155C321.639 211.875 320.779 213.548 319.672 215.174C318.553 216.8 317.445 218.32 316.338 219.733L308.904 230.219L328.779 275.506H293.576L273.242 229.429L295.249 199.175H272.334V275.506H243.199V169.286H293.423H293.411Z" stroke="#FFECBD" stroke-width="3.5344"/>
<path d="M407.078 199.481H386.284V275.506H355.936V199.481H334.847L338.947 169.286H403.132L407.078 199.481Z" stroke="#FFECBD" stroke-width="3.5344"/>
<path d="M485.684 169.286L489.324 199.634L467.317 199.328L480.818 221.937L467.011 245.758H489.313L485.672 275.506H413.441L445.769 222.549V222.396L413.441 169.286H485.672H485.684Z" stroke="#FFECBD" stroke-width="3.5344"/>
<path d="M540.619 189.773L551.54 169.286H585.989L557.761 222.549L585.683 275.506H551.081L540.607 255.631H540.301L529.674 275.506H494.919L522.994 222.396L494.919 169.286H529.816L540.596 189.773H540.619Z" stroke="#FFECBD" stroke-width="3.5344"/>
<path d="M21.7827 169.286H55.171L71.5588 204.041L88.5592 169.286H121.948L71.5706 275.506L21.7945 169.286H21.7827Z" fill="url(#paint24_linear_35_473)"/>
<path d="M198.726 171.866C199.539 172.066 200.269 172.325 200.929 172.62C201.589 172.926 202.272 173.174 202.979 173.374C207.833 175.4 212.439 178.157 216.787 181.644C221.134 185.132 224.775 189.208 227.708 193.862C231.549 199.929 234.105 206.633 235.366 213.972C236.627 221.312 236.25 228.617 234.223 235.897C233.316 239.644 231.926 243.261 230.053 246.748C228.179 250.235 226 253.475 223.526 256.456C221.052 259.436 218.236 262.123 215.102 264.502C211.968 266.882 208.681 268.826 205.241 270.346C199.268 273.28 192.8 274.952 185.814 275.353C174.68 275.754 164.643 273.48 155.689 268.52C146.735 263.56 139.725 256.385 134.671 246.972C132.951 243.932 131.608 240.681 130.654 237.182C129.687 233.694 129.087 230.101 128.827 226.413C128.58 222.726 128.698 219.05 129.204 215.41C129.711 211.769 130.571 208.282 131.785 204.936C133.811 198.869 137.039 193.225 141.492 188.018C145.946 182.811 151.047 178.734 156.82 175.801C158.434 174.788 160.06 173.975 161.674 173.374C162.887 172.867 164.348 172.361 166.08 171.854C173.161 169.627 180.595 168.873 188.382 169.58C190.208 169.781 191.975 170.063 193.695 170.417C195.415 170.77 197.088 171.253 198.702 171.854L198.726 171.866ZM186.733 200.235L184.306 199.929C182.185 199.835 180.053 199.976 177.932 200.388C177.425 200.388 176.942 200.495 176.495 200.695C176.035 200.895 175.564 201.001 175.057 201.001C174.244 201.402 173.408 201.79 172.56 202.144C171.7 202.497 170.863 202.98 170.062 203.581C169.555 203.687 169.202 203.888 169.002 204.194C168.801 204.5 168.495 204.748 168.095 204.948C167.694 205.254 167.282 205.56 166.881 205.855C166.481 206.161 166.127 206.562 165.821 207.068C165.621 207.068 165.514 207.116 165.514 207.222L165.208 207.528C165.102 207.634 165.008 207.752 164.902 207.905C164.796 208.058 164.654 208.235 164.442 208.435C164.242 208.942 163.959 209.366 163.606 209.719C163.252 210.073 162.97 210.509 162.769 211.003C162.569 211.404 162.334 211.816 162.086 212.217C161.827 212.618 161.603 213.03 161.403 213.43C161.297 213.937 161.179 214.396 161.026 214.797C160.873 215.198 160.696 215.657 160.496 216.164C160.39 216.67 160.272 217.153 160.119 217.601C159.965 218.06 159.895 218.591 159.895 219.191C159.694 219.298 159.647 219.368 159.742 219.415C159.836 219.462 159.895 219.592 159.895 219.792C159.588 220.806 159.541 222.219 159.742 224.045V224.505C160.142 228.852 161.615 232.646 164.148 235.886C164.454 236.392 164.808 236.852 165.208 237.252C165.609 237.653 165.962 238.065 166.268 238.466C166.669 238.866 167.081 239.22 167.482 239.526C167.788 239.832 167.989 239.986 168.095 239.986C168.601 240.492 169.002 240.846 169.308 241.046C169.614 241.246 169.862 241.399 170.062 241.505C170.262 241.611 170.463 241.764 170.663 241.965C171.063 242.165 171.44 242.342 171.806 242.495C172.159 242.648 172.583 242.825 173.09 243.025C173.596 243.331 174.409 243.685 175.517 244.085C176.624 244.486 177.59 244.698 178.403 244.698C178.804 244.898 179.11 245.004 179.31 245.004C179.817 245.004 180.17 245.051 180.371 245.157C180.677 245.063 181.007 245.028 181.36 245.087C181.714 245.134 182.044 245.11 182.35 245.016C184.577 245.016 186.697 244.71 188.724 244.109C189.124 243.909 189.431 243.803 189.631 243.803C189.937 243.803 190.291 243.708 190.691 243.496C190.891 243.697 190.997 243.697 190.997 243.496L191.304 243.19C191.61 243.19 191.881 243.096 192.14 242.884C192.388 242.683 192.718 242.53 193.13 242.424C193.636 241.918 194.19 241.517 194.803 241.211C195.109 241.01 195.439 240.81 195.792 240.61C196.146 240.41 196.476 240.209 196.782 239.997C197.183 239.385 197.595 239.031 197.996 238.937C198.302 238.536 198.596 238.183 198.903 237.877C199.209 237.57 199.515 237.217 199.81 236.816C200.517 236.003 201.153 235.179 201.707 234.319C202.26 233.459 202.791 232.469 203.297 231.362C203.603 230.761 203.827 230.125 203.98 229.465C204.134 228.805 204.31 228.181 204.511 227.568C205.418 223.315 205.218 219.274 203.91 215.433C203.297 213.006 202.084 210.732 200.269 208.6C198.75 206.479 196.57 204.606 193.743 202.98C192.529 202.167 191.056 201.519 189.336 201.013C188.83 200.813 188.37 200.683 187.97 200.636C187.569 200.589 187.157 200.459 186.756 200.259L186.733 200.235Z" fill="url(#paint25_linear_35_473)"/>
<path d="M293.411 169.286C294.012 169.286 294.424 169.333 294.625 169.439C295.131 169.239 295.638 169.239 296.144 169.439C296.651 169.639 297.158 169.698 297.664 169.592C298.878 169.698 300.068 169.898 301.234 170.205C302.4 170.511 303.531 170.864 304.651 171.265C305.97 171.772 307.325 172.384 308.751 173.091C312.898 175.224 316.385 178.263 319.224 182.21C321.757 185.756 323.371 189.703 324.078 194.062C324.785 198.421 324.585 202.721 323.465 206.974C323.265 207.481 323.065 208.011 322.865 208.565C322.664 209.118 322.464 209.649 322.252 210.155C321.639 211.875 320.779 213.548 319.672 215.174C318.553 216.8 317.445 218.32 316.338 219.733L308.904 230.219L328.779 275.506H293.576L273.242 229.429L295.249 199.175H272.334V275.506H243.199V169.286H293.423H293.411Z" fill="url(#paint26_linear_35_473)"/>
<path d="M407.078 199.481H386.284V275.506H355.936V199.481H334.847L338.947 169.286H403.132L407.078 199.481Z" fill="url(#paint27_linear_35_473)"/>
<path d="M485.684 169.286L489.324 199.634L467.317 199.328L480.818 221.937L467.011 245.758H489.313L485.672 275.506H413.441L445.769 222.549V222.396L413.441 169.286H485.672H485.684Z" fill="url(#paint28_linear_35_473)"/>
<path d="M540.619 189.773L551.54 169.286H585.989L557.761 222.549L585.683 275.506H551.081L540.607 255.631H540.301L529.674 275.506H494.919L522.994 222.396L494.919 169.286H529.816L540.596 189.773H540.619Z" fill="url(#paint29_linear_35_473)"/>
<path d="M552.54 80.2514H551.587V96.7097H539.769V55.732L551.587 37.2585V75.4931C553.94 72.6101 561.865 61.6659 561.865 61.6659H576.456L562.621 76.3048L576.932 96.7376H562.005L552.54 80.2514ZM519.606 77.5644L524.451 61.7779H536.157L522.434 96.5977C518.346 107.066 512.493 114.148 503.755 114.148C500.395 114.148 497.566 113.28 496.082 112.44L500.787 105.163C501.487 105.247 502.215 105.275 502.943 105.275C506.976 105.275 510 101.356 511.961 96.7097L497.566 61.7779H510.812L515.993 77.3684C517.002 80.3354 517.73 85.9894 517.73 85.9894C517.73 85.9894 518.654 80.5313 519.606 77.5644ZM483.9 76.7526C483.9 72.1902 481.884 70.035 478.047 70.035C476.171 70.035 474.21 70.5668 472.866 71.3785V96.7097H461.048V62.1138L472.614 61.1621L472.334 66.8161H472.726C475.218 63.4573 479.447 60.9102 484.488 60.9102C490.537 60.9102 495.774 64.6609 495.774 73.5338V96.7097H483.9V76.7526ZM427.218 94.9183L428.282 86.8571C431.979 88.6765 436.152 89.5442 439.652 89.5442C442.201 89.5442 443.881 88.6765 443.881 87.137C443.881 82.7146 427.946 83.7782 427.946 72.2182C427.946 64.8288 434.724 60.9382 443.209 60.9382C447.438 60.9382 451.806 62.0858 454.635 63.0934L453.487 71.0147C450.518 69.8671 446.486 68.8034 443.125 68.8034C441.053 68.8034 439.372 69.5312 439.372 70.8747C439.372 75.2412 455.643 74.3735 455.643 85.6535C455.643 93.1549 448.978 97.4654 439.848 97.4654C434.808 97.4654 430.719 96.5977 427.218 94.9183Z" fill="white"/>
</g>
<defs>
<linearGradient id="paint0_linear_35_473" x1="198.418" y1="135.45" x2="198.418" y2="29.2177" gradientUnits="userSpaceOnUse">
<stop stop-color="#36007A"/>
<stop offset="0.74" stop-color="#310081"/>
</linearGradient>
<linearGradient id="paint1_linear_35_473" x1="198.419" y1="135.45" x2="198.419" y2="29.2176" gradientUnits="userSpaceOnUse">
<stop stop-color="#36007A"/>
<stop offset="0.74" stop-color="#310081"/>
</linearGradient>
<linearGradient id="paint2_linear_35_473" x1="198.418" y1="135.45" x2="198.418" y2="29.2177" gradientUnits="userSpaceOnUse">
<stop stop-color="#36007A"/>
<stop offset="0.74" stop-color="#310081"/>
</linearGradient>
<linearGradient id="paint3_linear_35_473" x1="198.418" y1="135.45" x2="198.418" y2="29.2177" gradientUnits="userSpaceOnUse">
<stop stop-color="#36007A"/>
<stop offset="0.74" stop-color="#310081"/>
</linearGradient>
<linearGradient id="paint4_linear_35_473" x1="196.097" y1="153.864" x2="196.097" y2="12.6531" gradientUnits="userSpaceOnUse">
<stop stop-color="#68009A"/>
<stop offset="0.38" stop-color="#72009D"/>
<stop offset="1" stop-color="#7F00A1"/>
</linearGradient>
<linearGradient id="paint5_linear_35_473" x1="196.097" y1="153.864" x2="196.097" y2="12.6531" gradientUnits="userSpaceOnUse">
<stop stop-color="#68009A"/>
<stop offset="0.38" stop-color="#72009D"/>
<stop offset="1" stop-color="#7F00A1"/>
</linearGradient>
<linearGradient id="paint6_linear_35_473" x1="196.096" y1="153.864" x2="196.096" y2="12.6531" gradientUnits="userSpaceOnUse">
<stop stop-color="#68009A"/>
<stop offset="0.38" stop-color="#72009D"/>
<stop offset="1" stop-color="#7F00A1"/>
</linearGradient>
<linearGradient id="paint7_linear_35_473" x1="196.096" y1="153.864" x2="196.096" y2="12.6531" gradientUnits="userSpaceOnUse">
<stop stop-color="#68009A"/>
<stop offset="0.38" stop-color="#72009D"/>
<stop offset="1" stop-color="#7F00A1"/>
</linearGradient>
<linearGradient id="paint8_linear_35_473" x1="198.418" y1="135.45" x2="198.418" y2="29.2177" gradientUnits="userSpaceOnUse">
<stop stop-color="#FF27F5"/>
<stop offset="1" stop-color="#F9B307"/>
</linearGradient>
<linearGradient id="paint9_linear_35_473" x1="198.419" y1="135.45" x2="198.419" y2="29.2176" gradientUnits="userSpaceOnUse">
<stop stop-color="#FF27F5"/>
<stop offset="1" stop-color="#F9B307"/>
</linearGradient>
<linearGradient id="paint10_linear_35_473" x1="198.418" y1="135.45" x2="198.418" y2="29.2177" gradientUnits="userSpaceOnUse">
<stop stop-color="#FF27F5"/>
<stop offset="1" stop-color="#F9B307"/>
</linearGradient>
<linearGradient id="paint11_linear_35_473" x1="198.418" y1="135.45" x2="198.418" y2="29.2177" gradientUnits="userSpaceOnUse">
<stop stop-color="#FF27F5"/>
<stop offset="1" stop-color="#F9B307"/>
</linearGradient>
<linearGradient id="paint12_linear_35_473" x1="303.886" y1="275.506" x2="303.886" y2="169.286" gradientUnits="userSpaceOnUse">
<stop stop-color="#36007A"/>
<stop offset="0.74" stop-color="#310081"/>
</linearGradient>
<linearGradient id="paint13_linear_35_473" x1="303.886" y1="275.506" x2="303.886" y2="169.286" gradientUnits="userSpaceOnUse">
<stop stop-color="#36007A"/>
<stop offset="0.74" stop-color="#310081"/>
</linearGradient>
<linearGradient id="paint14_linear_35_473" x1="303.885" y1="275.506" x2="303.885" y2="169.286" gradientUnits="userSpaceOnUse">
<stop stop-color="#36007A"/>
<stop offset="0.74" stop-color="#310081"/>
</linearGradient>
<linearGradient id="paint15_linear_35_473" x1="303.886" y1="275.506" x2="303.886" y2="169.286" gradientUnits="userSpaceOnUse">
<stop stop-color="#36007A"/>
<stop offset="0.74" stop-color="#310081"/>
</linearGradient>
<linearGradient id="paint16_linear_35_473" x1="303.886" y1="275.506" x2="303.886" y2="169.286" gradientUnits="userSpaceOnUse">
<stop stop-color="#36007A"/>
<stop offset="0.74" stop-color="#310081"/>
</linearGradient>
<linearGradient id="paint17_linear_35_473" x1="303.885" y1="275.506" x2="303.885" y2="169.286" gradientUnits="userSpaceOnUse">
<stop stop-color="#36007A"/>
<stop offset="0.74" stop-color="#310081"/>
</linearGradient>
<linearGradient id="paint18_linear_35_473" x1="304.241" y1="293.92" x2="304.241" y2="161.428" gradientUnits="userSpaceOnUse">
<stop stop-color="#68009A"/>
<stop offset="0.38" stop-color="#72009D"/>
<stop offset="1" stop-color="#7F00A1"/>
</linearGradient>
<linearGradient id="paint19_linear_35_473" x1="304.24" y1="293.92" x2="304.24" y2="161.428" gradientUnits="userSpaceOnUse">
<stop stop-color="#68009A"/>
<stop offset="0.38" stop-color="#72009D"/>
<stop offset="1" stop-color="#7F00A1"/>
</linearGradient>
<linearGradient id="paint20_linear_35_473" x1="304.24" y1="293.92" x2="304.24" y2="161.428" gradientUnits="userSpaceOnUse">
<stop stop-color="#68009A"/>
<stop offset="0.38" stop-color="#72009D"/>
<stop offset="1" stop-color="#7F00A1"/>
</linearGradient>
<linearGradient id="paint21_linear_35_473" x1="304.241" y1="293.92" x2="304.241" y2="161.428" gradientUnits="userSpaceOnUse">
<stop stop-color="#68009A"/>
<stop offset="0.38" stop-color="#72009D"/>
<stop offset="1" stop-color="#7F00A1"/>
</linearGradient>
<linearGradient id="paint22_linear_35_473" x1="304.24" y1="293.92" x2="304.24" y2="161.428" gradientUnits="userSpaceOnUse">
<stop stop-color="#68009A"/>
<stop offset="0.38" stop-color="#72009D"/>
<stop offset="1" stop-color="#7F00A1"/>
</linearGradient>
<linearGradient id="paint23_linear_35_473" x1="304.241" y1="293.92" x2="304.241" y2="161.428" gradientUnits="userSpaceOnUse">
<stop stop-color="#68009A"/>
<stop offset="0.38" stop-color="#72009D"/>
<stop offset="1" stop-color="#7F00A1"/>
</linearGradient>
<linearGradient id="paint24_linear_35_473" x1="303.886" y1="275.506" x2="303.886" y2="169.286" gradientUnits="userSpaceOnUse">
<stop stop-color="#FF27F5"/>
<stop offset="1" stop-color="#F9B307"/>
</linearGradient>
<linearGradient id="paint25_linear_35_473" x1="303.886" y1="275.506" x2="303.886" y2="169.286" gradientUnits="userSpaceOnUse">
<stop stop-color="#FF27F5"/>
<stop offset="1" stop-color="#F9B307"/>
</linearGradient>
<linearGradient id="paint26_linear_35_473" x1="303.885" y1="275.506" x2="303.885" y2="169.286" gradientUnits="userSpaceOnUse">
<stop stop-color="#FF27F5"/>
<stop offset="1" stop-color="#F9B307"/>
</linearGradient>
<linearGradient id="paint27_linear_35_473" x1="303.886" y1="275.506" x2="303.886" y2="169.286" gradientUnits="userSpaceOnUse">
<stop stop-color="#FF27F5"/>
<stop offset="1" stop-color="#F9B307"/>
</linearGradient>
<linearGradient id="paint28_linear_35_473" x1="303.886" y1="275.506" x2="303.886" y2="169.286" gradientUnits="userSpaceOnUse">
<stop stop-color="#FF27F5"/>
<stop offset="1" stop-color="#F9B307"/>
</linearGradient>
<linearGradient id="paint29_linear_35_473" x1="303.885" y1="275.506" x2="303.885" y2="169.286" gradientUnits="userSpaceOnUse">
<stop stop-color="#FF27F5"/>
<stop offset="1" stop-color="#F9B307"/>
</linearGradient>
<clipPath id="clip0_35_473">
<rect width="609" height="307.987" fill="white"/>
</clipPath>
</defs>
</svg>
