<svg width="517" height="262" viewBox="0 0 517 262" fill="none" xmlns="http://www.w3.org/2000/svg">
<g clip-path="url(#clip0_24_2)">
<path d="M21.9702 24.8H50.3102L64.2202 54.3L78.6502 24.8H106.99L64.2302 114.96L21.9702 24.8Z" stroke="url(#paint0_linear_24_2)" stroke-width="23.51"/>
<path d="M138.93 89.72H156.32V24.8H182.08V92.29C182.08 94.78 181.58 97.17 180.6 99.44C179.61 101.72 178.32 103.78 176.74 105.62C175.15 107.47 173.28 109.08 171.14 110.45C168.99 111.82 166.76 112.9 164.44 113.67C162.81 114.27 161.11 114.64 159.35 114.76C157.59 114.89 155.76 114.95 153.88 114.95C151.13 114.87 148.32 114.84 145.44 114.89C142.56 114.93 139.77 114.85 137.07 114.63C134.36 114.42 131.79 113.9 129.34 113.08C126.89 112.27 124.64 110.91 122.58 109.02C120 106.96 117.81 104.3 116.01 101.03C114.21 97.77 113.3 94.2 113.3 90.34V24.8H138.93V89.72Z" stroke="url(#paint1_linear_24_2)" stroke-width="23.51"/>
<path d="M215.43 24.8V89.2H240.93L238.1 114.96H189.41V24.8H215.43Z" stroke="url(#paint2_linear_24_2)" stroke-width="23.51"/>
<path d="M314.74 24.8V114.96L270.69 79.02V114.96H245.44V24.8L288.59 60.09V24.8H314.87H314.74Z" stroke="url(#paint3_linear_24_2)" stroke-width="23.51"/>
<path d="M21.9702 24.8H50.3102L64.2202 54.3L78.6502 24.8H106.99L64.2302 114.96L21.9702 24.8Z" stroke="#FF3DFF" stroke-width="17.64"/>
<path d="M138.93 89.72H156.32V24.8H182.08V92.29C182.08 94.78 181.58 97.17 180.6 99.44C179.61 101.72 178.32 103.78 176.74 105.62C175.15 107.47 173.28 109.08 171.14 110.45C168.99 111.82 166.76 112.9 164.44 113.67C162.81 114.27 161.11 114.64 159.35 114.76C157.59 114.89 155.76 114.95 153.88 114.95C151.13 114.87 148.32 114.84 145.44 114.89C142.56 114.93 139.77 114.85 137.07 114.63C134.36 114.42 131.79 113.9 129.34 113.08C126.89 112.27 124.64 110.91 122.58 109.02C120 106.96 117.81 104.3 116.01 101.03C114.21 97.77 113.3 94.2 113.3 90.34V24.8H138.93V89.72Z" stroke="#FF3DFF" stroke-width="17.64"/>
<path d="M215.43 24.8V89.2H240.93L238.1 114.96H189.41V24.8H215.43Z" stroke="#FF3DFF" stroke-width="17.64"/>
<path d="M314.74 24.8V114.96L270.69 79.02V114.96H245.44V24.8L288.59 60.09V24.8H314.87H314.74Z" stroke="#FF3DFF" stroke-width="17.64"/>
<path d="M11.4902 18.14H54.5302L64.3302 38.91L74.4902 18.14H117.52L64.1802 130.6L11.4902 18.14Z" fill="url(#paint4_linear_24_2)"/>
<path d="M153.66 121.63C151.9 121.58 150.08 121.55 148.26 121.55C147.35 121.55 146.44 121.55 145.52 121.57C145 121.57 144.49 121.58 143.97 121.58C141.44 121.58 138.93 121.48 136.52 121.29C133.3 121.04 130.16 120.41 127.21 119.42C123.95 118.34 120.93 116.55 118.22 114.11C115.05 111.53 112.33 108.22 110.16 104.28C107.81 100.04 106.62 95.35 106.62 90.37V18.14H145.58V83.06H149.64V18.14H188.73V92.3C188.73 95.7 188.05 98.99 186.7 102.1C185.45 104.98 183.79 107.63 181.77 109.98C179.77 112.31 177.39 114.36 174.71 116.08C172.14 117.73 169.42 119.04 166.62 119.98C164.44 120.77 162.15 121.26 159.81 121.43C157.9 121.57 155.89 121.64 153.85 121.64H153.64L153.66 121.63Z" fill="url(#paint5_linear_24_2)"/>
<path d="M182.75 121.63V18.14H222.1V82.54H248.38L244.08 121.63H182.75Z" fill="url(#paint6_linear_24_2)"/>
<path d="M277.36 93.07V121.63H238.78V10.74L281.93 46.04V18.14H321.41V129.01L277.36 93.07Z" fill="url(#paint7_linear_24_2)"/>
<path d="M21.9702 24.8H50.3102L64.2202 54.3L78.6502 24.8H106.99L64.2302 114.96L21.9702 24.8Z" stroke="#FFECBD" stroke-width="3"/>
<path d="M138.93 89.72H156.32V24.8H182.08V92.29C182.08 94.78 181.58 97.17 180.6 99.44C179.61 101.72 178.32 103.78 176.74 105.62C175.15 107.47 173.28 109.08 171.14 110.45C168.99 111.82 166.76 112.9 164.44 113.67C162.81 114.27 161.11 114.64 159.35 114.76C157.59 114.89 155.76 114.95 153.88 114.95C151.13 114.87 148.32 114.84 145.44 114.89C142.56 114.93 139.77 114.85 137.07 114.63C134.36 114.42 131.79 113.9 129.34 113.08C126.89 112.27 124.64 110.91 122.58 109.02C120 106.96 117.81 104.3 116.01 101.03C114.21 97.77 113.3 94.2 113.3 90.34V24.8H138.93V89.72Z" stroke="#FFECBD" stroke-width="3"/>
<path d="M215.43 24.8V89.2H240.93L238.1 114.96H189.41V24.8H215.43Z" stroke="#FFECBD" stroke-width="3"/>
<path d="M314.74 24.8V114.96L270.69 79.02V114.96H245.44V24.8L288.59 60.09V24.8H314.87H314.74Z" stroke="#FFECBD" stroke-width="3"/>
<path d="M21.9702 24.8H50.3102L64.2202 54.3L78.6502 24.8H106.99L64.2302 114.96L21.9702 24.8Z" fill="url(#paint8_linear_24_2)"/>
<path d="M138.93 89.72H156.32V24.8H182.08V92.29C182.08 94.78 181.58 97.17 180.6 99.44C179.61 101.72 178.32 103.78 176.74 105.62C175.15 107.47 173.28 109.08 171.14 110.45C168.99 111.82 166.76 112.9 164.44 113.67C162.81 114.27 161.11 114.64 159.35 114.76C157.59 114.89 155.76 114.95 153.88 114.95C151.13 114.87 148.32 114.84 145.44 114.89C142.56 114.93 139.77 114.85 137.07 114.63C134.36 114.42 131.79 113.9 129.34 113.08C126.89 112.27 124.64 110.91 122.58 109.02C120 106.96 117.81 104.3 116.01 101.03C114.21 97.77 113.3 94.2 113.3 90.34V24.8H138.93V89.72Z" fill="url(#paint9_linear_24_2)"/>
<path d="M215.43 24.8V89.2H240.93L238.1 114.96H189.41V24.8H215.43Z" fill="url(#paint10_linear_24_2)"/>
<path d="M314.74 24.8V114.96L270.69 79.02V114.96H245.44V24.8L288.59 60.09V24.8H314.87H314.74Z" fill="url(#paint11_linear_24_2)"/>
<path d="M18.4897 143.69H46.8297L60.7397 173.19L75.1697 143.69H103.51L60.7497 233.85L18.4997 143.69H18.4897Z" stroke="url(#paint12_linear_24_2)" stroke-width="23.51"/>
<path d="M168.68 145.88C169.37 146.05 169.99 146.27 170.55 146.52C171.11 146.78 171.69 146.99 172.29 147.16C176.41 148.88 180.32 151.22 184.01 154.18C187.7 157.14 190.79 160.6 193.28 164.55C196.54 169.7 198.71 175.39 199.78 181.62C200.85 187.85 200.53 194.05 198.81 200.23C198.04 203.41 196.86 206.48 195.27 209.44C193.68 212.4 191.83 215.15 189.73 217.68C187.63 220.21 185.24 222.49 182.58 224.51C179.92 226.53 177.13 228.18 174.21 229.47C169.14 231.96 163.65 233.38 157.72 233.72C148.27 234.06 139.75 232.13 132.15 227.92C124.55 223.71 118.6 217.62 114.31 209.63C112.85 207.05 111.71 204.29 110.9 201.32C110.08 198.36 109.57 195.31 109.35 192.18C109.14 189.05 109.24 185.93 109.67 182.84C110.1 179.75 110.83 176.79 111.86 173.95C113.58 168.8 116.32 164.01 120.1 159.59C123.88 155.17 128.21 151.71 133.11 149.22C134.48 148.36 135.86 147.67 137.23 147.16C138.26 146.73 139.5 146.3 140.97 145.87C146.98 143.98 153.29 143.34 159.9 143.94C161.45 144.11 162.95 144.35 164.41 144.65C165.87 144.95 167.29 145.36 168.66 145.87L168.68 145.88ZM158.5 169.96L156.44 169.7C154.64 169.62 152.83 169.74 151.03 170.09C150.6 170.09 150.19 170.18 149.81 170.35C149.42 170.52 149.02 170.61 148.59 170.61C147.9 170.95 147.19 171.28 146.47 171.58C145.74 171.88 145.03 172.29 144.35 172.8C143.92 172.89 143.62 173.06 143.45 173.32C143.28 173.58 143.02 173.79 142.68 173.96C142.34 174.22 141.99 174.48 141.65 174.73C141.31 174.99 141.01 175.33 140.75 175.76C140.58 175.76 140.49 175.8 140.49 175.89L140.23 176.15C140.14 176.24 140.06 176.34 139.97 176.47C139.88 176.6 139.76 176.75 139.58 176.92C139.41 177.35 139.17 177.71 138.87 178.01C138.57 178.31 138.33 178.68 138.16 179.1C137.99 179.44 137.79 179.79 137.58 180.13C137.36 180.47 137.17 180.82 137 181.16C136.91 181.59 136.81 181.98 136.68 182.32C136.55 182.66 136.4 183.05 136.23 183.48C136.14 183.91 136.04 184.32 135.91 184.7C135.78 185.09 135.72 185.54 135.72 186.05C135.55 186.14 135.51 186.2 135.59 186.24C135.67 186.28 135.72 186.39 135.72 186.56C135.46 187.42 135.42 188.62 135.59 190.17V190.56C135.93 194.25 137.18 197.47 139.33 200.22C139.59 200.65 139.89 201.04 140.23 201.38C140.57 201.72 140.87 202.07 141.13 202.41C141.47 202.75 141.82 203.05 142.16 203.31C142.42 203.57 142.59 203.7 142.68 203.7C143.11 204.13 143.45 204.43 143.71 204.6C143.97 204.77 144.18 204.9 144.35 204.99C144.52 205.08 144.69 205.21 144.86 205.38C145.2 205.55 145.52 205.7 145.83 205.83C146.13 205.96 146.49 206.11 146.92 206.28C147.35 206.54 148.04 206.84 148.98 207.18C149.92 207.52 150.74 207.7 151.43 207.7C151.77 207.87 152.03 207.96 152.2 207.96C152.63 207.96 152.93 208 153.1 208.09C153.36 208.01 153.64 207.98 153.94 208.03C154.24 208.07 154.52 208.05 154.78 207.97C156.67 207.97 158.47 207.71 160.19 207.2C160.53 207.03 160.79 206.94 160.96 206.94C161.22 206.94 161.52 206.86 161.86 206.68C162.03 206.85 162.12 206.85 162.12 206.68L162.38 206.42C162.64 206.42 162.87 206.34 163.09 206.16C163.3 205.99 163.58 205.86 163.93 205.77C164.36 205.34 164.83 205 165.35 204.74C165.61 204.57 165.89 204.4 166.19 204.23C166.49 204.06 166.77 203.89 167.03 203.71C167.37 203.19 167.72 202.89 168.06 202.81C168.32 202.47 168.57 202.17 168.83 201.91C169.09 201.65 169.35 201.35 169.6 201.01C170.2 200.32 170.74 199.62 171.21 198.89C171.68 198.16 172.13 197.32 172.56 196.38C172.82 195.87 173.01 195.33 173.14 194.77C173.27 194.21 173.42 193.68 173.59 193.16C174.36 189.55 174.19 186.12 173.08 182.86C172.56 180.8 171.53 178.87 169.99 177.06C168.7 175.26 166.85 173.67 164.45 172.29C163.42 171.6 162.17 171.05 160.71 170.62C160.28 170.45 159.89 170.34 159.55 170.3C159.21 170.26 158.86 170.15 158.52 169.98L158.5 169.96Z" stroke="url(#paint13_linear_24_2)" stroke-width="23.51"/>
<path d="M249.05 143.69C249.56 143.69 249.91 143.73 250.08 143.82C250.51 143.65 250.94 143.65 251.37 143.82C251.8 143.99 252.23 144.04 252.66 143.95C253.69 144.04 254.7 144.21 255.69 144.47C256.68 144.73 257.64 145.03 258.59 145.37C259.71 145.8 260.86 146.32 262.07 146.92C265.59 148.73 268.55 151.31 270.96 154.66C273.11 157.67 274.48 161.02 275.08 164.72C275.68 168.42 275.51 172.07 274.56 175.68C274.39 176.11 274.22 176.56 274.05 177.03C273.88 177.5 273.71 177.95 273.53 178.38C273.01 179.84 272.28 181.26 271.34 182.64C270.39 184.02 269.45 185.31 268.51 186.51L262.2 195.41L279.07 233.85H249.19L231.93 194.74L250.61 169.06H231.16V233.85H206.43V143.69H249.06H249.05Z" stroke="url(#paint14_linear_24_2)" stroke-width="23.51"/>
<path d="M345.53 169.32H327.88V233.85H302.12V169.32H284.22L287.7 143.69H342.18L345.53 169.32Z" stroke="url(#paint15_linear_24_2)" stroke-width="23.51"/>
<path d="M412.25 143.69L415.34 169.45L396.66 169.19L408.12 188.38L396.4 208.6H415.33L412.24 233.85H350.93L378.37 188.9V188.77L350.93 143.69H412.24H412.25Z" stroke="url(#paint16_linear_24_2)" stroke-width="23.51"/>
<path d="M458.88 161.08L468.15 143.69H497.39L473.43 188.9L497.13 233.85H467.76L458.87 216.98H458.61L449.59 233.85H420.09L443.92 188.77L420.09 143.69H449.71L458.86 161.08H458.88Z" stroke="url(#paint17_linear_24_2)" stroke-width="23.51"/>
<path d="M18.4897 143.69H46.8297L60.7397 173.19L75.1697 143.69H103.51L60.7497 233.85L18.4997 143.69H18.4897Z" stroke="#FF3DFF" stroke-width="17.64"/>
<path d="M168.68 145.88C169.37 146.05 169.99 146.27 170.55 146.52C171.11 146.78 171.69 146.99 172.29 147.16C176.41 148.88 180.32 151.22 184.01 154.18C187.7 157.14 190.79 160.6 193.28 164.55C196.54 169.7 198.71 175.39 199.78 181.62C200.85 187.85 200.53 194.05 198.81 200.23C198.04 203.41 196.86 206.48 195.27 209.44C193.68 212.4 191.83 215.15 189.73 217.68C187.63 220.21 185.24 222.49 182.58 224.51C179.92 226.53 177.13 228.18 174.21 229.47C169.14 231.96 163.65 233.38 157.72 233.72C148.27 234.06 139.75 232.13 132.15 227.92C124.55 223.71 118.6 217.62 114.31 209.63C112.85 207.05 111.71 204.29 110.9 201.32C110.08 198.36 109.57 195.31 109.35 192.18C109.14 189.05 109.24 185.93 109.67 182.84C110.1 179.75 110.83 176.79 111.86 173.95C113.58 168.8 116.32 164.01 120.1 159.59C123.88 155.17 128.21 151.71 133.11 149.22C134.48 148.36 135.86 147.67 137.23 147.16C138.26 146.73 139.5 146.3 140.97 145.87C146.98 143.98 153.29 143.34 159.9 143.94C161.45 144.11 162.95 144.35 164.41 144.65C165.87 144.95 167.29 145.36 168.66 145.87L168.68 145.88ZM158.5 169.96L156.44 169.7C154.64 169.62 152.83 169.74 151.03 170.09C150.6 170.09 150.19 170.18 149.81 170.35C149.42 170.52 149.02 170.61 148.59 170.61C147.9 170.95 147.19 171.28 146.47 171.58C145.74 171.88 145.03 172.29 144.35 172.8C143.92 172.89 143.62 173.06 143.45 173.32C143.28 173.58 143.02 173.79 142.68 173.96C142.34 174.22 141.99 174.48 141.65 174.73C141.31 174.99 141.01 175.33 140.75 175.76C140.58 175.76 140.49 175.8 140.49 175.89L140.23 176.15C140.14 176.24 140.06 176.34 139.97 176.47C139.88 176.6 139.76 176.75 139.58 176.92C139.41 177.35 139.17 177.71 138.87 178.01C138.57 178.31 138.33 178.68 138.16 179.1C137.99 179.44 137.79 179.79 137.58 180.13C137.36 180.47 137.17 180.82 137 181.16C136.91 181.59 136.81 181.98 136.68 182.32C136.55 182.66 136.4 183.05 136.23 183.48C136.14 183.91 136.04 184.32 135.91 184.7C135.78 185.09 135.72 185.54 135.72 186.05C135.55 186.14 135.51 186.2 135.59 186.24C135.67 186.28 135.72 186.39 135.72 186.56C135.46 187.42 135.42 188.62 135.59 190.17V190.56C135.93 194.25 137.18 197.47 139.33 200.22C139.59 200.65 139.89 201.04 140.23 201.38C140.57 201.72 140.87 202.07 141.13 202.41C141.47 202.75 141.82 203.05 142.16 203.31C142.42 203.57 142.59 203.7 142.68 203.7C143.11 204.13 143.45 204.43 143.71 204.6C143.97 204.77 144.18 204.9 144.35 204.99C144.52 205.08 144.69 205.21 144.86 205.38C145.2 205.55 145.52 205.7 145.83 205.83C146.13 205.96 146.49 206.11 146.92 206.28C147.35 206.54 148.04 206.84 148.98 207.18C149.92 207.52 150.74 207.7 151.43 207.7C151.77 207.87 152.03 207.96 152.2 207.96C152.63 207.96 152.93 208 153.1 208.09C153.36 208.01 153.64 207.98 153.94 208.03C154.24 208.07 154.52 208.05 154.78 207.97C156.67 207.97 158.47 207.71 160.19 207.2C160.53 207.03 160.79 206.94 160.96 206.94C161.22 206.94 161.52 206.86 161.86 206.68C162.03 206.85 162.12 206.85 162.12 206.68L162.38 206.42C162.64 206.42 162.87 206.34 163.09 206.16C163.3 205.99 163.58 205.86 163.93 205.77C164.36 205.34 164.83 205 165.35 204.74C165.61 204.57 165.89 204.4 166.19 204.23C166.49 204.06 166.77 203.89 167.03 203.71C167.37 203.19 167.72 202.89 168.06 202.81C168.32 202.47 168.57 202.17 168.83 201.91C169.09 201.65 169.35 201.35 169.6 201.01C170.2 200.32 170.74 199.62 171.21 198.89C171.68 198.16 172.13 197.32 172.56 196.38C172.82 195.87 173.01 195.33 173.14 194.77C173.27 194.21 173.42 193.68 173.59 193.16C174.36 189.55 174.19 186.12 173.08 182.86C172.56 180.8 171.53 178.87 169.99 177.06C168.7 175.26 166.85 173.67 164.45 172.29C163.42 171.6 162.17 171.05 160.71 170.62C160.28 170.45 159.89 170.34 159.55 170.3C159.21 170.26 158.86 170.15 158.52 169.98L158.5 169.96Z" stroke="#FF3DFF" stroke-width="17.64"/>
<path d="M249.05 143.69C249.56 143.69 249.91 143.73 250.08 143.82C250.51 143.65 250.94 143.65 251.37 143.82C251.8 143.99 252.23 144.04 252.66 143.95C253.69 144.04 254.7 144.21 255.69 144.47C256.68 144.73 257.64 145.03 258.59 145.37C259.71 145.8 260.86 146.32 262.07 146.92C265.59 148.73 268.55 151.31 270.96 154.66C273.11 157.67 274.48 161.02 275.08 164.72C275.68 168.42 275.51 172.07 274.56 175.68C274.39 176.11 274.22 176.56 274.05 177.03C273.88 177.5 273.71 177.95 273.53 178.38C273.01 179.84 272.28 181.26 271.34 182.64C270.39 184.02 269.45 185.31 268.51 186.51L262.2 195.41L279.07 233.85H249.19L231.93 194.74L250.61 169.06H231.16V233.85H206.43V143.69H249.06H249.05Z" stroke="#FF3DFF" stroke-width="17.64"/>
<path d="M345.53 169.32H327.88V233.85H302.12V169.32H284.22L287.7 143.69H342.18L345.53 169.32Z" stroke="#FF3DFF" stroke-width="17.64"/>
<path d="M412.25 143.69L415.34 169.45L396.66 169.19L408.12 188.38L396.4 208.6H415.33L412.24 233.85H350.93L378.37 188.9V188.77L350.93 143.69H412.24H412.25Z" stroke="#FF3DFF" stroke-width="17.64"/>
<path d="M458.88 161.08L468.15 143.69H497.39L473.43 188.9L497.13 233.85H467.76L458.87 216.98H458.61L449.59 233.85H420.09L443.92 188.77L420.09 143.69H449.71L458.86 161.08H458.88Z" stroke="#FF3DFF" stroke-width="17.64"/>
<path d="M8.00977 137.02H51.0598L60.8498 157.79L71.0098 137.02H114.04L60.6998 249.48L8.00977 137.02Z" fill="url(#paint18_linear_24_2)"/>
<path d="M155.61 240.43C145.9 240.43 136.92 238.19 128.93 233.76C120.25 228.95 113.37 221.92 108.48 212.86C106.77 209.84 105.43 206.56 104.48 203.1C103.55 199.72 102.95 196.2 102.71 192.64C102.46 189.06 102.59 185.46 103.08 181.93C103.57 178.43 104.41 175.01 105.58 171.77C107.56 165.86 110.75 160.31 115.05 155.27C119.31 150.28 124.29 146.29 129.85 143.42C131.48 142.42 133.14 141.6 134.8 140.97C136.02 140.47 137.41 139.99 139.05 139.5C144.22 137.88 149.65 137.06 155.19 137.06C156.94 137.06 158.74 137.14 160.52 137.3H160.66C162.4 137.51 164.12 137.78 165.77 138.12C167.46 138.47 169.1 138.93 170.69 139.51C171.63 139.77 172.52 140.09 173.34 140.46C173.59 140.58 173.85 140.67 174.12 140.75L174.5 140.86L174.86 141.01C179.54 142.96 184.03 145.64 188.19 148.98C192.44 152.39 196.05 156.43 198.93 160.99C202.64 166.85 205.15 173.41 206.37 180.48C207.6 187.62 207.24 194.83 205.29 201.91C204.39 205.58 203 209.17 201.17 212.59C199.37 215.94 197.26 219.09 194.88 221.94C192.46 224.85 189.69 227.5 186.63 229.82C183.61 232.11 180.38 234.03 177.05 235.51C171.24 238.35 164.87 239.98 158.13 240.37H157.99C157.2 240.41 156.41 240.42 155.63 240.42L155.61 240.43ZM153.01 201.04L153.59 201.33L153.69 201.3H154.77C155.86 201.3 156.91 201.17 157.9 200.91C158.19 200.79 158.48 200.69 158.76 200.6L159.61 199.75H160.74C161.13 199.47 161.53 199.22 161.95 198.99C162.16 198.86 162.37 198.73 162.6 198.59C162.94 198.24 163.29 197.93 163.64 197.67C163.79 197.5 163.95 197.34 164.11 197.18C164.11 197.18 164.16 197.13 164.25 197.01L164.41 196.8L164.58 196.6C164.97 196.16 165.31 195.7 165.61 195.25C165.9 194.8 166.2 194.24 166.49 193.6L166.6 193.38C166.6 193.38 166.63 193.3 166.64 193.26C166.78 192.64 166.95 192.03 167.13 191.45C167.58 189.15 167.46 187.03 166.76 185L166.67 184.74L166.6 184.47C166.34 183.42 165.78 182.41 164.91 181.39L164.72 181.17L164.55 180.93C163.83 179.93 162.68 178.96 161.13 178.07L160.93 177.96L160.74 177.84C160.42 177.63 159.82 177.31 158.81 177.01L158.52 176.92L158.35 176.85C157.84 176.77 157.33 176.64 156.83 176.47L155.89 176.35C155.71 176.35 155.54 176.35 155.36 176.35C154.34 176.35 153.3 176.45 152.27 176.64L151.77 176.73C151.35 176.88 150.92 177 150.48 177.08C149.99 177.31 149.5 177.52 148.99 177.73C148.78 177.82 148.56 177.95 148.33 178.12L147.12 179.03L147.03 179.05C146.8 179.22 146.56 179.39 146.31 179.54L146.15 179.66L144.49 182.42H143.93C143.72 182.83 143.49 183.23 143.24 183.62C143.14 183.98 143.02 184.33 142.89 184.68C142.8 184.91 142.7 185.17 142.59 185.45C142.52 185.75 142.44 186.05 142.35 186.35V190.17L142.22 190.23C142.48 192.52 143.24 194.45 144.54 196.12L144.8 196.45L144.97 196.74C145.07 196.84 145.16 196.94 145.26 197.04H145.41C145.41 197.04 147.46 199.1 147.5 199.14C147.8 199.3 148.1 199.49 148.39 199.69C148.39 199.69 148.41 199.69 148.42 199.7C148.69 199.82 148.99 199.94 149.35 200.09L149.86 200.29L150.32 200.57C150.32 200.57 150.6 200.7 151.22 200.92C151.4 200.99 151.52 201.02 151.59 201.04H152.99H153.01Z" fill="url(#paint19_linear_24_2)"/>
<path d="M244.84 240.52L237.82 224.61V240.52H199.76V137.03H249.06C249.34 137.03 249.66 137.03 250.01 137.06C250.25 137.04 250.49 137.03 250.74 137.03C251.41 137.03 252.06 137.11 252.71 137.27L253.23 137.31C254.63 137.43 256.03 137.67 257.38 138.02C258.55 138.33 259.72 138.69 260.86 139.1L260.99 139.15C262.28 139.65 263.64 140.25 265.04 140.95C269.57 143.27 273.35 146.56 276.37 150.77C279.12 154.62 280.89 158.95 281.66 163.65C282.41 168.26 282.19 172.88 281.01 177.37L280.9 177.78L280.74 178.17C280.59 178.53 280.45 178.91 280.31 179.31C280.12 179.83 279.94 180.3 279.77 180.74C279.07 182.7 278.08 184.61 276.84 186.42C275.84 187.87 274.84 189.24 273.85 190.5L269.81 196.19L289.27 240.52H244.84Z" fill="url(#paint20_linear_24_2)"/>
<path d="M295.45 240.52V175.99H276.59L281.87 137.02H348.03L353.12 175.99H334.55V240.52H295.45Z" fill="url(#paint21_linear_24_2)"/>
<path d="M339.06 240.52L370.6 188.83L339.08 137.02H418.16L422.86 176.22L408.51 176.02L415.86 188.33L407.97 201.94H422.87L418.15 240.52H339.06Z" fill="url(#paint22_linear_24_2)"/>
<path d="M463.74 240.52L458.71 230.96L453.6 240.52H409.04L436.39 188.77L409.04 137.02H453.76L458.92 146.84L464.15 137.02H508.46L480.97 188.91L508.18 240.52H463.74Z" fill="url(#paint23_linear_24_2)"/>
<path d="M18.4897 143.69H46.8297L60.7397 173.19L75.1697 143.69H103.51L60.7497 233.85L18.4997 143.69H18.4897Z" stroke="#FFECBD" stroke-width="3"/>
<path d="M168.68 145.88C169.37 146.05 169.99 146.27 170.55 146.52C171.11 146.78 171.69 146.99 172.29 147.16C176.41 148.88 180.32 151.22 184.01 154.18C187.7 157.14 190.79 160.6 193.28 164.55C196.54 169.7 198.71 175.39 199.78 181.62C200.85 187.85 200.53 194.05 198.81 200.23C198.04 203.41 196.86 206.48 195.27 209.44C193.68 212.4 191.83 215.15 189.73 217.68C187.63 220.21 185.24 222.49 182.58 224.51C179.92 226.53 177.13 228.18 174.21 229.47C169.14 231.96 163.65 233.38 157.72 233.72C148.27 234.06 139.75 232.13 132.15 227.92C124.55 223.71 118.6 217.62 114.31 209.63C112.85 207.05 111.71 204.29 110.9 201.32C110.08 198.36 109.57 195.31 109.35 192.18C109.14 189.05 109.24 185.93 109.67 182.84C110.1 179.75 110.83 176.79 111.86 173.95C113.58 168.8 116.32 164.01 120.1 159.59C123.88 155.17 128.21 151.71 133.11 149.22C134.48 148.36 135.86 147.67 137.23 147.16C138.26 146.73 139.5 146.3 140.97 145.87C146.98 143.98 153.29 143.34 159.9 143.94C161.45 144.11 162.95 144.35 164.41 144.65C165.87 144.95 167.29 145.36 168.66 145.87L168.68 145.88ZM158.5 169.96L156.44 169.7C154.64 169.62 152.83 169.74 151.03 170.09C150.6 170.09 150.19 170.18 149.81 170.35C149.42 170.52 149.02 170.61 148.59 170.61C147.9 170.95 147.19 171.28 146.47 171.58C145.74 171.88 145.03 172.29 144.35 172.8C143.92 172.89 143.62 173.06 143.45 173.32C143.28 173.58 143.02 173.79 142.68 173.96C142.34 174.22 141.99 174.48 141.65 174.73C141.31 174.99 141.01 175.33 140.75 175.76C140.58 175.76 140.49 175.8 140.49 175.89L140.23 176.15C140.14 176.24 140.06 176.34 139.97 176.47C139.88 176.6 139.76 176.75 139.58 176.92C139.41 177.35 139.17 177.71 138.87 178.01C138.57 178.31 138.33 178.68 138.16 179.1C137.99 179.44 137.79 179.79 137.58 180.13C137.36 180.47 137.17 180.82 137 181.16C136.91 181.59 136.81 181.98 136.68 182.32C136.55 182.66 136.4 183.05 136.23 183.48C136.14 183.91 136.04 184.32 135.91 184.7C135.78 185.09 135.72 185.54 135.72 186.05C135.55 186.14 135.51 186.2 135.59 186.24C135.67 186.28 135.72 186.39 135.72 186.56C135.46 187.42 135.42 188.62 135.59 190.17V190.56C135.93 194.25 137.18 197.47 139.33 200.22C139.59 200.65 139.89 201.04 140.23 201.38C140.57 201.72 140.87 202.07 141.13 202.41C141.47 202.75 141.82 203.05 142.16 203.31C142.42 203.57 142.59 203.7 142.68 203.7C143.11 204.13 143.45 204.43 143.71 204.6C143.97 204.77 144.18 204.9 144.35 204.99C144.52 205.08 144.69 205.21 144.86 205.38C145.2 205.55 145.52 205.7 145.83 205.83C146.13 205.96 146.49 206.11 146.92 206.28C147.35 206.54 148.04 206.84 148.98 207.18C149.92 207.52 150.74 207.7 151.43 207.7C151.77 207.87 152.03 207.96 152.2 207.96C152.63 207.96 152.93 208 153.1 208.09C153.36 208.01 153.64 207.98 153.94 208.03C154.24 208.07 154.52 208.05 154.78 207.97C156.67 207.97 158.47 207.71 160.19 207.2C160.53 207.03 160.79 206.94 160.96 206.94C161.22 206.94 161.52 206.86 161.86 206.68C162.03 206.85 162.12 206.85 162.12 206.68L162.38 206.42C162.64 206.42 162.87 206.34 163.09 206.16C163.3 205.99 163.58 205.86 163.93 205.77C164.36 205.34 164.83 205 165.35 204.74C165.61 204.57 165.89 204.4 166.19 204.23C166.49 204.06 166.77 203.89 167.03 203.71C167.37 203.19 167.72 202.89 168.06 202.81C168.32 202.47 168.57 202.17 168.83 201.91C169.09 201.65 169.35 201.35 169.6 201.01C170.2 200.32 170.74 199.62 171.21 198.89C171.68 198.16 172.13 197.32 172.56 196.38C172.82 195.87 173.01 195.33 173.14 194.77C173.27 194.21 173.42 193.68 173.59 193.16C174.36 189.55 174.19 186.12 173.08 182.86C172.56 180.8 171.53 178.87 169.99 177.06C168.7 175.26 166.85 173.67 164.45 172.29C163.42 171.6 162.17 171.05 160.71 170.62C160.28 170.45 159.89 170.34 159.55 170.3C159.21 170.26 158.86 170.15 158.52 169.98L158.5 169.96Z" stroke="#FFECBD" stroke-width="3"/>
<path d="M249.05 143.69C249.56 143.69 249.91 143.73 250.08 143.82C250.51 143.65 250.94 143.65 251.37 143.82C251.8 143.99 252.23 144.04 252.66 143.95C253.69 144.04 254.7 144.21 255.69 144.47C256.68 144.73 257.64 145.03 258.59 145.37C259.71 145.8 260.86 146.32 262.07 146.92C265.59 148.73 268.55 151.31 270.96 154.66C273.11 157.67 274.48 161.02 275.08 164.72C275.68 168.42 275.51 172.07 274.56 175.68C274.39 176.11 274.22 176.56 274.05 177.03C273.88 177.5 273.71 177.95 273.53 178.38C273.01 179.84 272.28 181.26 271.34 182.64C270.39 184.02 269.45 185.31 268.51 186.51L262.2 195.41L279.07 233.85H249.19L231.93 194.74L250.61 169.06H231.16V233.85H206.43V143.69H249.06H249.05Z" stroke="#FFECBD" stroke-width="3"/>
<path d="M345.53 169.32H327.88V233.85H302.12V169.32H284.22L287.7 143.69H342.18L345.53 169.32Z" stroke="#FFECBD" stroke-width="3"/>
<path d="M412.25 143.69L415.34 169.45L396.66 169.19L408.12 188.38L396.4 208.6H415.33L412.24 233.85H350.93L378.37 188.9V188.77L350.93 143.69H412.24H412.25Z" stroke="#FFECBD" stroke-width="3"/>
<path d="M458.88 161.08L468.15 143.69H497.39L473.43 188.9L497.13 233.85H467.76L458.87 216.98H458.61L449.59 233.85H420.09L443.92 188.77L420.09 143.69H449.71L458.86 161.08H458.88Z" stroke="#FFECBD" stroke-width="3"/>
<path d="M18.4897 143.69H46.8297L60.7397 173.19L75.1697 143.69H103.51L60.7497 233.85L18.4997 143.69H18.4897Z" fill="url(#paint24_linear_24_2)"/>
<path d="M168.68 145.88C169.37 146.05 169.99 146.27 170.55 146.52C171.11 146.78 171.69 146.99 172.29 147.16C176.41 148.88 180.32 151.22 184.01 154.18C187.7 157.14 190.79 160.6 193.28 164.55C196.54 169.7 198.71 175.39 199.78 181.62C200.85 187.85 200.53 194.05 198.81 200.23C198.04 203.41 196.86 206.48 195.27 209.44C193.68 212.4 191.83 215.15 189.73 217.68C187.63 220.21 185.24 222.49 182.58 224.51C179.92 226.53 177.13 228.18 174.21 229.47C169.14 231.96 163.65 233.38 157.72 233.72C148.27 234.06 139.75 232.13 132.15 227.92C124.55 223.71 118.6 217.62 114.31 209.63C112.85 207.05 111.71 204.29 110.9 201.32C110.08 198.36 109.57 195.31 109.35 192.18C109.14 189.05 109.24 185.93 109.67 182.84C110.1 179.75 110.83 176.79 111.86 173.95C113.58 168.8 116.32 164.01 120.1 159.59C123.88 155.17 128.21 151.71 133.11 149.22C134.48 148.36 135.86 147.67 137.23 147.16C138.26 146.73 139.5 146.3 140.97 145.87C146.98 143.98 153.29 143.34 159.9 143.94C161.45 144.11 162.95 144.35 164.41 144.65C165.87 144.95 167.29 145.36 168.66 145.87L168.68 145.88ZM158.5 169.96L156.44 169.7C154.64 169.62 152.83 169.74 151.03 170.09C150.6 170.09 150.19 170.18 149.81 170.35C149.42 170.52 149.02 170.61 148.59 170.61C147.9 170.95 147.19 171.28 146.47 171.58C145.74 171.88 145.03 172.29 144.35 172.8C143.92 172.89 143.62 173.06 143.45 173.32C143.28 173.58 143.02 173.79 142.68 173.96C142.34 174.22 141.99 174.48 141.65 174.73C141.31 174.99 141.01 175.33 140.75 175.76C140.58 175.76 140.49 175.8 140.49 175.89L140.23 176.15C140.14 176.24 140.06 176.34 139.97 176.47C139.88 176.6 139.76 176.75 139.58 176.92C139.41 177.35 139.17 177.71 138.87 178.01C138.57 178.31 138.33 178.68 138.16 179.1C137.99 179.44 137.79 179.79 137.58 180.13C137.36 180.47 137.17 180.82 137 181.16C136.91 181.59 136.81 181.98 136.68 182.32C136.55 182.66 136.4 183.05 136.23 183.48C136.14 183.91 136.04 184.32 135.91 184.7C135.78 185.09 135.72 185.54 135.72 186.05C135.55 186.14 135.51 186.2 135.59 186.24C135.67 186.28 135.72 186.39 135.72 186.56C135.46 187.42 135.42 188.62 135.59 190.17V190.56C135.93 194.25 137.18 197.47 139.33 200.22C139.59 200.65 139.89 201.04 140.23 201.38C140.57 201.72 140.87 202.07 141.13 202.41C141.47 202.75 141.82 203.05 142.16 203.31C142.42 203.57 142.59 203.7 142.68 203.7C143.11 204.13 143.45 204.43 143.71 204.6C143.97 204.77 144.18 204.9 144.35 204.99C144.52 205.08 144.69 205.21 144.86 205.38C145.2 205.55 145.52 205.7 145.83 205.83C146.13 205.96 146.49 206.11 146.92 206.28C147.35 206.54 148.04 206.84 148.98 207.18C149.92 207.52 150.74 207.7 151.43 207.7C151.77 207.87 152.03 207.96 152.2 207.96C152.63 207.96 152.93 208 153.1 208.09C153.36 208.01 153.64 207.98 153.94 208.03C154.24 208.07 154.52 208.05 154.78 207.97C156.67 207.97 158.47 207.71 160.19 207.2C160.53 207.03 160.79 206.94 160.96 206.94C161.22 206.94 161.52 206.86 161.86 206.68C162.03 206.85 162.12 206.85 162.12 206.68L162.38 206.42C162.64 206.42 162.87 206.34 163.09 206.16C163.3 205.99 163.58 205.86 163.93 205.77C164.36 205.34 164.83 205 165.35 204.74C165.61 204.57 165.89 204.4 166.19 204.23C166.49 204.06 166.77 203.89 167.03 203.71C167.37 203.19 167.72 202.89 168.06 202.81C168.32 202.47 168.57 202.17 168.83 201.91C169.09 201.65 169.35 201.35 169.6 201.01C170.2 200.32 170.74 199.62 171.21 198.89C171.68 198.16 172.13 197.32 172.56 196.38C172.82 195.87 173.01 195.33 173.14 194.77C173.27 194.21 173.42 193.68 173.59 193.16C174.36 189.55 174.19 186.12 173.08 182.86C172.56 180.8 171.53 178.87 169.99 177.06C168.7 175.26 166.85 173.67 164.45 172.29C163.42 171.6 162.17 171.05 160.71 170.62C160.28 170.45 159.89 170.34 159.55 170.3C159.21 170.26 158.86 170.15 158.52 169.98L158.5 169.96Z" fill="url(#paint25_linear_24_2)"/>
<path d="M249.05 143.69C249.56 143.69 249.91 143.73 250.08 143.82C250.51 143.65 250.94 143.65 251.37 143.82C251.8 143.99 252.23 144.04 252.66 143.95C253.69 144.04 254.7 144.21 255.69 144.47C256.68 144.73 257.64 145.03 258.59 145.37C259.71 145.8 260.86 146.32 262.07 146.92C265.59 148.73 268.55 151.31 270.96 154.66C273.11 157.67 274.48 161.02 275.08 164.72C275.68 168.42 275.51 172.07 274.56 175.68C274.39 176.11 274.22 176.56 274.05 177.03C273.88 177.5 273.71 177.95 273.53 178.38C273.01 179.84 272.28 181.26 271.34 182.64C270.39 184.02 269.45 185.31 268.51 186.51L262.2 195.41L279.07 233.85H249.19L231.93 194.74L250.61 169.06H231.16V233.85H206.43V143.69H249.06H249.05Z" fill="url(#paint26_linear_24_2)"/>
<path d="M345.53 169.32H327.88V233.85H302.12V169.32H284.22L287.7 143.69H342.18L345.53 169.32Z" fill="url(#paint27_linear_24_2)"/>
<path d="M412.25 143.69L415.34 169.45L396.66 169.19L408.12 188.38L396.4 208.6H415.33L412.24 233.85H350.93L378.37 188.9V188.77L350.93 143.69H412.24H412.25Z" fill="url(#paint28_linear_24_2)"/>
<path d="M458.88 161.08L468.15 143.69H497.39L473.43 188.9L497.13 233.85H467.76L458.87 216.98H458.61L449.59 233.85H420.09L443.92 188.77L420.09 143.69H449.71L458.86 161.08H458.88Z" fill="url(#paint29_linear_24_2)"/>
</g>
<defs>
<linearGradient id="paint0_linear_24_2" x1="168.42" y1="114.97" x2="168.42" y2="24.8" gradientUnits="userSpaceOnUse">
<stop stop-color="#36007A"/>
<stop offset="0.74" stop-color="#310081"/>
</linearGradient>
<linearGradient id="paint1_linear_24_2" x1="168.42" y1="114.97" x2="168.42" y2="24.8" gradientUnits="userSpaceOnUse">
<stop stop-color="#36007A"/>
<stop offset="0.74" stop-color="#310081"/>
</linearGradient>
<linearGradient id="paint2_linear_24_2" x1="168.42" y1="114.97" x2="168.42" y2="24.8" gradientUnits="userSpaceOnUse">
<stop stop-color="#36007A"/>
<stop offset="0.74" stop-color="#310081"/>
</linearGradient>
<linearGradient id="paint3_linear_24_2" x1="168.42" y1="114.97" x2="168.42" y2="24.8" gradientUnits="userSpaceOnUse">
<stop stop-color="#36007A"/>
<stop offset="0.74" stop-color="#310081"/>
</linearGradient>
<linearGradient id="paint4_linear_24_2" x1="166.45" y1="130.6" x2="166.45" y2="10.74" gradientUnits="userSpaceOnUse">
<stop stop-color="#68009A"/>
<stop offset="0.38" stop-color="#72009D"/>
<stop offset="1" stop-color="#7F00A1"/>
</linearGradient>
<linearGradient id="paint5_linear_24_2" x1="166.45" y1="130.6" x2="166.45" y2="10.74" gradientUnits="userSpaceOnUse">
<stop stop-color="#68009A"/>
<stop offset="0.38" stop-color="#72009D"/>
<stop offset="1" stop-color="#7F00A1"/>
</linearGradient>
<linearGradient id="paint6_linear_24_2" x1="166.45" y1="130.6" x2="166.45" y2="10.74" gradientUnits="userSpaceOnUse">
<stop stop-color="#68009A"/>
<stop offset="0.38" stop-color="#72009D"/>
<stop offset="1" stop-color="#7F00A1"/>
</linearGradient>
<linearGradient id="paint7_linear_24_2" x1="166.45" y1="130.6" x2="166.45" y2="10.74" gradientUnits="userSpaceOnUse">
<stop stop-color="#68009A"/>
<stop offset="0.38" stop-color="#72009D"/>
<stop offset="1" stop-color="#7F00A1"/>
</linearGradient>
<linearGradient id="paint8_linear_24_2" x1="168.42" y1="114.97" x2="168.42" y2="24.8" gradientUnits="userSpaceOnUse">
<stop stop-color="#FF27F5"/>
<stop offset="1" stop-color="#F9B307"/>
</linearGradient>
<linearGradient id="paint9_linear_24_2" x1="168.42" y1="114.97" x2="168.42" y2="24.8" gradientUnits="userSpaceOnUse">
<stop stop-color="#FF27F5"/>
<stop offset="1" stop-color="#F9B307"/>
</linearGradient>
<linearGradient id="paint10_linear_24_2" x1="168.42" y1="114.97" x2="168.42" y2="24.8" gradientUnits="userSpaceOnUse">
<stop stop-color="#FF27F5"/>
<stop offset="1" stop-color="#F9B307"/>
</linearGradient>
<linearGradient id="paint11_linear_24_2" x1="168.42" y1="114.97" x2="168.42" y2="24.8" gradientUnits="userSpaceOnUse">
<stop stop-color="#FF27F5"/>
<stop offset="1" stop-color="#F9B307"/>
</linearGradient>
<linearGradient id="paint12_linear_24_2" x1="257.94" y1="233.85" x2="257.94" y2="143.69" gradientUnits="userSpaceOnUse">
<stop stop-color="#36007A"/>
<stop offset="0.74" stop-color="#310081"/>
</linearGradient>
<linearGradient id="paint13_linear_24_2" x1="257.94" y1="233.85" x2="257.94" y2="143.69" gradientUnits="userSpaceOnUse">
<stop stop-color="#36007A"/>
<stop offset="0.74" stop-color="#310081"/>
</linearGradient>
<linearGradient id="paint14_linear_24_2" x1="257.94" y1="233.85" x2="257.94" y2="143.69" gradientUnits="userSpaceOnUse">
<stop stop-color="#36007A"/>
<stop offset="0.74" stop-color="#310081"/>
</linearGradient>
<linearGradient id="paint15_linear_24_2" x1="257.94" y1="233.85" x2="257.94" y2="143.69" gradientUnits="userSpaceOnUse">
<stop stop-color="#36007A"/>
<stop offset="0.74" stop-color="#310081"/>
</linearGradient>
<linearGradient id="paint16_linear_24_2" x1="257.94" y1="233.85" x2="257.94" y2="143.69" gradientUnits="userSpaceOnUse">
<stop stop-color="#36007A"/>
<stop offset="0.74" stop-color="#310081"/>
</linearGradient>
<linearGradient id="paint17_linear_24_2" x1="257.94" y1="233.85" x2="257.94" y2="143.69" gradientUnits="userSpaceOnUse">
<stop stop-color="#36007A"/>
<stop offset="0.74" stop-color="#310081"/>
</linearGradient>
<linearGradient id="paint18_linear_24_2" x1="258.24" y1="249.48" x2="258.24" y2="137.02" gradientUnits="userSpaceOnUse">
<stop stop-color="#68009A"/>
<stop offset="0.38" stop-color="#72009D"/>
<stop offset="1" stop-color="#7F00A1"/>
</linearGradient>
<linearGradient id="paint19_linear_24_2" x1="258.24" y1="249.48" x2="258.24" y2="137.02" gradientUnits="userSpaceOnUse">
<stop stop-color="#68009A"/>
<stop offset="0.38" stop-color="#72009D"/>
<stop offset="1" stop-color="#7F00A1"/>
</linearGradient>
<linearGradient id="paint20_linear_24_2" x1="258.24" y1="249.48" x2="258.24" y2="137.02" gradientUnits="userSpaceOnUse">
<stop stop-color="#68009A"/>
<stop offset="0.38" stop-color="#72009D"/>
<stop offset="1" stop-color="#7F00A1"/>
</linearGradient>
<linearGradient id="paint21_linear_24_2" x1="258.24" y1="249.48" x2="258.24" y2="137.02" gradientUnits="userSpaceOnUse">
<stop stop-color="#68009A"/>
<stop offset="0.38" stop-color="#72009D"/>
<stop offset="1" stop-color="#7F00A1"/>
</linearGradient>
<linearGradient id="paint22_linear_24_2" x1="258.24" y1="249.48" x2="258.24" y2="137.02" gradientUnits="userSpaceOnUse">
<stop stop-color="#68009A"/>
<stop offset="0.38" stop-color="#72009D"/>
<stop offset="1" stop-color="#7F00A1"/>
</linearGradient>
<linearGradient id="paint23_linear_24_2" x1="258.24" y1="249.48" x2="258.24" y2="137.02" gradientUnits="userSpaceOnUse">
<stop stop-color="#68009A"/>
<stop offset="0.38" stop-color="#72009D"/>
<stop offset="1" stop-color="#7F00A1"/>
</linearGradient>
<linearGradient id="paint24_linear_24_2" x1="257.94" y1="233.85" x2="257.94" y2="143.69" gradientUnits="userSpaceOnUse">
<stop stop-color="#FF27F5"/>
<stop offset="1" stop-color="#F9B307"/>
</linearGradient>
<linearGradient id="paint25_linear_24_2" x1="257.94" y1="233.85" x2="257.94" y2="143.69" gradientUnits="userSpaceOnUse">
<stop stop-color="#FF27F5"/>
<stop offset="1" stop-color="#F9B307"/>
</linearGradient>
<linearGradient id="paint26_linear_24_2" x1="257.94" y1="233.85" x2="257.94" y2="143.69" gradientUnits="userSpaceOnUse">
<stop stop-color="#FF27F5"/>
<stop offset="1" stop-color="#F9B307"/>
</linearGradient>
<linearGradient id="paint27_linear_24_2" x1="257.94" y1="233.85" x2="257.94" y2="143.69" gradientUnits="userSpaceOnUse">
<stop stop-color="#FF27F5"/>
<stop offset="1" stop-color="#F9B307"/>
</linearGradient>
<linearGradient id="paint28_linear_24_2" x1="257.94" y1="233.85" x2="257.94" y2="143.69" gradientUnits="userSpaceOnUse">
<stop stop-color="#FF27F5"/>
<stop offset="1" stop-color="#F9B307"/>
</linearGradient>
<linearGradient id="paint29_linear_24_2" x1="257.94" y1="233.85" x2="257.94" y2="143.69" gradientUnits="userSpaceOnUse">
<stop stop-color="#FF27F5"/>
<stop offset="1" stop-color="#F9B307"/>
</linearGradient>
<clipPath id="clip0_24_2">
<rect width="516.92" height="261.42" fill="white"/>
</clipPath>
</defs>
</svg>
